<?xml version="1.0" encoding="UTF-8"?>
<svg id="Layer_1" data-name="Layer 1" xmlns="http://www.w3.org/2000/svg" xmlns:xlink="http://www.w3.org/1999/xlink" viewBox="0 0 288.64 67.97">
  <defs>
    <style>
      .cls-1 {
        filter: url(#drop-shadow-1);
      }

      .cls-2 {
        fill: url(#radial-gradient-3);
      }

      .cls-3 {
        fill: url(#radial-gradient-2);
      }

      .cls-4 {
        fill: none;
        stroke: #bdbfc1;
        stroke-miterlimit: 10;
        stroke-width: 1px;
      }

      .cls-5 {
        fill: url(#radial-gradient);
      }

      .cls-6 {
        fill: #aa8240;
      }

      .cls-7 {
        fill: #fff;
      }

      .cls-8 {
        fill: #258fce;
      }

      .cls-9 {
        fill: #1c4583;
      }
    </style>
    <filter id="drop-shadow-1" x="192.99" y="11.22" width="61.68" height="22.56" filterUnits="userSpaceOnUse">
      <feOffset dx="1.73" dy="1.73"/>
      <feGaussianBlur result="blur" stdDeviation=".86"/>
      <feFlood flood-color="#231f20" flood-opacity=".3"/>
      <feComposite in2="blur" operator="in"/>
      <feComposite in="SourceGraphic"/>
    </filter>
    <radialGradient id="radial-gradient" cx="987.61" cy="16.66" fx="987.61" fy="16.66" r="11.26" gradientTransform="translate(-769.97)" gradientUnits="userSpaceOnUse">
      <stop offset="0" stop-color="#cde1b6"/>
      <stop offset=".45" stop-color="#83bc50"/>
      <stop offset=".92" stop-color="#4aa848"/>
    </radialGradient>
    <radialGradient id="radial-gradient-2" cx="967.03" cy="14.46" fx="967.03" fy="14.46" r="10.03" gradientTransform="translate(-769.97)" gradientUnits="userSpaceOnUse">
      <stop offset="0" stop-color="#d4ebf7"/>
      <stop offset="1" stop-color="#168fce"/>
    </radialGradient>
    <radialGradient id="radial-gradient-3" cx="1574.63" cy="-3984.31" fx="1574.63" fy="-3984.31" r="11.25" gradientTransform="translate(4219.23 1600.93) rotate(-90)" gradientUnits="userSpaceOnUse">
      <stop offset="0" stop-color="#bdc2e2"/>
      <stop offset="1" stop-color="#1c4583"/>
    </radialGradient>
  </defs>
  <g>
    <polygon class="cls-6" points="69.02 32.55 68.81 32.55 68.81 15.05 62.26 15.05 62.26 12.28 78.42 12.28 78.42 15.05 71.85 15.05 71.85 32.55 69.02 32.55"/>
    <g>
      <path class="cls-6" d="M88.55,32.55h-.14l-7.85-20.27h3.3l5.21,14.56c.32.9.61,1.76.85,2.57.26-.85.55-1.71.87-2.57l5.42-14.56h3.13l-7.94,20.27h-2.84"/>
      <polygon class="cls-6" points="126.29 32.55 126.29 32.34 126.5 32.34 126.29 32.34 126.29 32.55 126.07 32.55 126.07 15.06 119.53 15.06 119.53 12.28 135.69 12.28 135.69 15.06 129.13 15.06 129.13 32.55 126.29 32.55"/>
      <path class="cls-6" d="M52.07,32.55c-1.22,0-2.29-.11-3.24-.35-.95-.23-1.76-.57-2.43-1.02-.68-.45-1.3-1.08-1.86-1.85-.57-.79-1.03-1.77-1.38-2.96-.36-1.19-.54-2.54-.54-4.07,0-1.79.26-3.39.79-4.8.53-1.4,1.34-2.57,2.41-3.47.83-.71,1.83-1.2,3-1.47.84-.2,2.03-.29,3.58-.29h7.05v2.77h-3.05s-3.96,0-3.96,0c-1.55,0-2.66.14-3.32.39-.92.36-1.72,1.07-2.38,2.16-.65,1.07-.99,2.63-.99,4.68,0,1.48.17,2.74.51,3.76.34,1.03.81,1.83,1.41,2.43.42.41.97.74,1.7.98.67.22,1.61.34,2.79.35h.21v.02h7.1v2.75h-7.37Z"/>
      <path class="cls-6" d="M101.47,32.55v-11.85h14.03v2.75h-10.99v6.34h12.19v2.76h-15.23ZM101.47,15.06v-2.78h14.78v2.78h-14.78Z"/>
      <path class="cls-6" d="M39.25,18.49c-.23-.94-.57-1.76-1.02-2.43-.45-.68-1.07-1.3-1.85-1.86-.79-.57-1.78-1.03-2.95-1.38-1.19-.36-2.55-.54-4.07-.54-1.79,0-3.39.26-4.79.79-1.41.53-2.57,1.33-3.48,2.41-.71.83-1.2,1.83-1.47,3-.2.84-.29,2.03-.29,3.58v10.48h2.77v-3.05h0v-6.14h12.53v-2.54h-12.5c.06-.89.18-1.58.36-2.03.36-.92,1.06-1.72,2.15-2.38,1.06-.65,2.62-.99,4.68-.99,1.48,0,2.74.17,3.76.51,1.03.34,1.83.81,2.43,1.4.41.41.74.98.98,1.69.22.67.34,1.61.35,2.79v.21h.02v10.53h2.75v-10.81c0-1.21-.11-2.29-.34-3.24"/>
      <path class="cls-6" d="M83.56,42.58c0-.06-.07-.12-.2-.2-.43-.23-.64-.35-.65-.35-.16-.13-.27-.27-.34-.41-.09-.17-.14-.35-.14-.53,0-.38.11-.69.35-.93.22-.22.49-.34.8-.34.27,0,.52.11.74.33.23.22.34.47.34.75v.52h.22v.51h-.3c-.08,0-.16-.04-.24-.13-.08-.08-.11-.18-.11-.28v-.61c0-.18-.06-.35-.19-.51-.13-.18-.29-.26-.46-.26-.19,0-.35.09-.5.26-.16.18-.23.4-.23.66,0,.16.04.3.11.43.09.15.22.29.4.41.12.09.34.19.65.31.19.08.29.16.29.25,0,.13-.07.26-.22.4-.16.15-.37.28-.63.37-.3.1-.61.16-.96.16-.31,0-.63-.1-.95-.3-.34-.21-.51-.41-.51-.62,0-.08.13-.23.39-.44.24-.2.47-.35.67-.46v.08c-.11.11-.19.2-.24.27-.16.2-.25.34-.25.44,0,.13.11.29.33.47.22.18.41.27.59.27.27,0,.54-.06.82-.19.28-.13.42-.25.42-.34M82.33,43.87c.07,0,.13.03.18.09.05.06.07.13.07.22s-.03.15-.07.22c-.05.06-.11.09-.18.09s-.13-.03-.18-.09c-.05-.07-.07-.13-.07-.22s.03-.16.07-.22c.05-.06.11-.09.18-.09M82.94,43.74c.07,0,.13.03.18.09.05.06.07.13.07.22,0,.08-.02.15-.07.21-.05.06-.11.09-.18.09s-.13-.03-.18-.09c-.05-.06-.08-.13-.08-.21s.03-.16.08-.22c.05-.06.11-.09.18-.09"/>
      <rect class="cls-6" x="84.68" y="41.42" width="2.12" height=".52"/>
      <rect class="cls-6" x="86.8" y="41.42" width="2.12" height=".52"/>
      <rect class="cls-6" x="88.92" y="41.42" width="2.12" height=".52"/>
      <rect class="cls-6" x="91.04" y="41.42" width="2.12" height=".52"/>
      <rect class="cls-6" x="93.16" y="41.42" width="2.12" height=".52"/>
      <path class="cls-6" d="M96.19,41.42v-.83s0-.08-.02-.12c-.03-.1-.12-.15-.25-.15h-.11v-.15l.8-.17v1.41h.4v.51h-1.73v-.51h.9ZM96.35,42.58c.07,0,.13.03.18.09.05.06.08.13.08.22,0,.08-.03.15-.08.21-.05.06-.11.09-.18.09s-.13-.03-.18-.09c-.05-.05-.08-.13-.08-.21,0-.09.02-.16.07-.22.05-.06.11-.09.18-.09"/>
      <rect class="cls-6" x="97.02" y="41.42" width="2.12" height=".52"/>
      <rect class="cls-6" x="99.14" y="41.42" width="2.12" height=".52"/>
      <path class="cls-6" d="M104.45,41.42c0,.07.03.15.09.23.06.07.12.11.18.11v.17h-3.46v-.51h2.77v-.45c0-.19-.07-.34-.2-.47-.13-.11-.27-.17-.43-.17h-.27c-.22,0-.41.07-.57.22-.15.14-.23.32-.23.52v.15h-.42v-2.7c0-.09-.02-.16-.07-.2-.05-.04-.11-.07-.2-.07h-.1v-.15l.79-.17v2.28c.1-.07.22-.12.35-.16.13-.04.28-.05.45-.05h.26c.36,0,.63.08.8.24.17.16.26.4.26.72v.45ZM103.38,39.06c0,.08-.02.15-.07.21-.05.06-.11.09-.18.09s-.13-.03-.18-.09c-.05-.06-.08-.13-.08-.22s.02-.16.07-.22c.05-.06.1-.09.18-.09s.13.03.18.09c.05.06.07.13.07.22"/>
      <path class="cls-6" d="M107.32,41.42h.4v.51h-.5c-.11.34-.28.67-.51.98-.27.37-.58.64-.92.82v-.05c.25-.25.49-.59.72-1.03.25-.48.38-.86.38-1.17v-.28c0-.24-.06-.45-.19-.62-.13-.17-.28-.25-.45-.25-.16,0-.29.06-.39.16-.09.1-.14.23-.14.38s.05.28.14.39c.1.11.21.16.36.16h.46v.05c0,.09-.02.19-.05.31-.01.04-.03.09-.05.15h-.33c-.21,0-.41-.06-.59-.19-.24-.17-.36-.42-.36-.75,0-.3.1-.54.31-.74.18-.17.39-.26.61-.26.34,0,.6.09.79.29.2.21.31.51.31.9v.22Z"/>
      <rect class="cls-6" x="107.72" y="41.42" width="2.12" height=".52"/>
      <rect class="cls-6" x="109.85" y="41.42" width="2.12" height=".52"/>
      <path class="cls-6" d="M112.87,41.42v-.83s0-.08-.02-.12c-.03-.1-.11-.15-.25-.15h-.1v-.15l.8-.17v1.41c0,.12.04.23.13.31.03.03.07.06.13.1v.1h-1.59v-.51h.91ZM112.77,42.58c.07,0,.13.03.18.09.05.06.07.13.07.22,0,.08-.02.15-.07.21-.05.06-.11.09-.18.09-.07,0-.13-.03-.18-.09-.05-.05-.07-.13-.07-.21,0-.09.02-.16.07-.22.05-.06.11-.09.18-.09"/>
      <path class="cls-6" d="M115.21,41.94h-.96v-.1c.06-.04.11-.06.14-.09.09-.09.13-.19.13-.32v-2.89c0-.09-.02-.16-.07-.2-.05-.04-.11-.07-.2-.07h-.11v-.15l.79-.17v3.47c0,.12.04.23.14.31.02.03.07.06.13.1v.1ZM115.01,37.73h-.84v-.25h.17l-.12-.3c.13-.13.21-.21.25-.24.1-.08.21-.12.32-.12h.13v.23c-.08,0-.14.01-.2.04-.06.03-.11.08-.17.14.07.08.13.14.2.18.07.04.13.06.2.06h.07v.25Z"/>
      <path class="cls-6" d="M119.49,41.94c-.04.42-.18.79-.43,1.11-.23.29-.52.51-.89.68v-.05c.12-.1.24-.23.35-.38.15-.21.28-.42.38-.65.12-.29.17-.58.17-.88v-1.17c0-.09-.02-.16-.07-.2-.05-.04-.11-.07-.2-.07h-.1v-.15l.79-.17v1.41h.4v.51h-.41ZM119.23,38.76c.07,0,.13.03.18.09.05.06.07.13.07.22s-.02.15-.07.21c-.05.06-.11.09-.18.09s-.13-.03-.18-.09c-.05-.06-.08-.13-.08-.22s.02-.16.07-.22c.05-.06.11-.09.18-.09"/>
      <rect class="cls-6" x="119.89" y="41.42" width="2.12" height=".52"/>
      <rect class="cls-6" x="122.02" y="41.42" width="2.12" height=".52"/>
      <rect class="cls-6" x="124.14" y="41.42" width="2.12" height=".52"/>
      <path class="cls-6" d="M126.53,40.33v-.35l1.68-2.03h.36l-1.71,2.06h.74c.41,0,.69.06.83.18.16.13.23.4.23.81v.93h-2.4v-.51h1.97v-.44c0-.22-.05-.38-.15-.47-.14-.12-.38-.18-.75-.18h-.8Z"/>
      <path class="cls-6" d="M130.56,41.94c-.04.42-.18.79-.43,1.11-.23.29-.53.51-.89.68v-.05c.12-.1.24-.23.35-.37.15-.21.28-.42.37-.65.12-.29.18-.58.18-.88v-1.18c0-.09-.03-.16-.07-.2-.05-.05-.12-.07-.2-.07h-.11v-.15l.8-.17v1.41h.4v.51h-.41Z"/>
      <rect class="cls-6" x="130.97" y="41.42" width="2.12" height=".52"/>
      <path class="cls-6" d="M135.75,41.94h-2.66v-.51h1.97v-1.09h-.37c-.2,0-.36.08-.48.23-.11.13-.16.29-.16.47v.2h-.43v-.26c0-.28.08-.51.25-.68.18-.18.44-.28.75-.28h.86v1.41c0,.09.03.17.09.24.06.07.12.11.18.11v.17Z"/>
      <path class="cls-6" d="M84.58,48.85v-.82s0-.08-.02-.12c-.03-.1-.12-.15-.25-.15h-.11v-.15l.8-.17v1.41h.4v.51h-3.06c-.36,0-.64-.09-.83-.26-.16-.15-.23-.31-.23-.5,0-.1.13-.3.38-.59.27-.31.49-.49.68-.57v.08s-.05.05-.14.14c-.11.12-.2.24-.26.34-.09.16-.14.29-.14.41,0,.1.07.19.2.28.16.11.36.17.6.17h1.97ZM83.41,50c.07,0,.13.03.18.09.05.06.07.13.07.22s-.02.15-.07.21c-.05.06-.11.09-.18.09s-.13-.03-.18-.09c-.05-.06-.08-.13-.08-.21s.03-.16.08-.22c.05-.06.11-.09.18-.09"/>
      <rect class="cls-6" x="86.2" y="48.04" width=".52" height="2.12" transform="translate(37.17 135.46) rotate(-89.88)"/>
      <rect class="cls-6" x="88.32" y="48.04" width=".52" height="2.12" transform="translate(39.29 137.58) rotate(-89.88)"/>
      <rect class="cls-6" x="90.45" y="48.04" width=".52" height="2.12" transform="translate(41.41 139.71) rotate(-89.88)"/>
      <path class="cls-6" d="M92.67,48.85v-.82s0-.08-.02-.12c-.03-.1-.12-.15-.25-.15h-.11v-.15l.8-.17v1.41c0,.12.05.23.13.32.03.03.07.06.13.09v.11h-1.6v-.51h.9ZM92.31,50.13c.07,0,.13.03.18.09.05.06.08.13.08.21s-.03.16-.08.22c-.05.05-.11.09-.18.09-.07,0-.13-.03-.18-.09-.05-.06-.07-.13-.07-.22s.02-.16.07-.22c.05-.06.11-.08.18-.08M92.93,50c.07,0,.13.03.18.09.05.06.07.13.07.22s-.02.15-.07.21c-.05.06-.11.09-.18.09s-.13-.03-.18-.09c-.05-.06-.08-.13-.08-.21s.03-.16.07-.22c.05-.06.11-.09.18-.09"/>
      <path class="cls-6" d="M95.28,49.15c0,.48-.13.89-.38,1.25-.23.32-.55.57-.94.75v-.05c.12-.1.23-.22.35-.38.15-.2.28-.42.37-.65.12-.29.18-.58.18-.87v-1.17c0-.09-.02-.16-.07-.2-.05-.05-.11-.07-.2-.07h-.1v-.15l.79-.17v1.71Z"/>
      <path class="cls-6" d="M98.92,49.36h-3.06v-.51h2.24v-.47c0-.18-.08-.33-.22-.46-.13-.11-.27-.17-.42-.17h-1.33v-.32h1.33c.39,0,.67.08.83.24.16.15.24.39.24.73v.45h.4v.51Z"/>
      <rect class="cls-6" x="99.73" y="48.04" width=".52" height="2.13" transform="translate(50.67 148.99) rotate(-89.88)"/>
      <rect class="cls-6" x="101.85" y="48.04" width=".52" height="2.12" transform="translate(52.79 151.11) rotate(-89.88)"/>
      <path class="cls-6" d="M104.08,48.85v-.82s0-.08-.02-.12c-.03-.1-.12-.15-.25-.15h-.11v-.15l.8-.17v1.41h.4v.51h-1.73v-.51h.91ZM103.61,46.63c.07,0,.13.03.18.09.05.06.07.13.07.22,0,.08-.03.15-.07.21-.05.06-.11.09-.18.09s-.13-.03-.18-.09c-.05-.06-.07-.13-.07-.21,0-.09.02-.16.07-.22.05-.06.11-.09.18-.09M104.24,46.51c.07,0,.13.03.18.09.05.06.08.13.08.22,0,.08-.03.15-.08.21-.05.06-.11.09-.18.09s-.13-.03-.18-.09c-.05-.06-.08-.13-.08-.22s.02-.16.07-.22c.05-.06.11-.09.18-.09"/>
      <path class="cls-6" d="M105.54,48.85v-2.89s0-.08-.02-.12c-.03-.1-.12-.15-.25-.15h-.11v-.15l.8-.17v3.47c0,.13.04.23.13.32.03.03.07.06.13.09v.11h-1.33v-.51h.64Z"/>
      <path class="cls-6" d="M107.88,49.36h-.96v-.11c.06-.03.11-.06.14-.09.09-.09.13-.19.13-.32v-2.88c0-.09-.03-.16-.07-.2-.04-.05-.11-.07-.2-.07h-.1v-.15l.8-.17v3.47c0,.13.04.23.13.32.03.03.08.06.13.09v.11Z"/>
      <path class="cls-6" d="M110.05,48.63c0-.24-.06-.45-.19-.62-.13-.17-.28-.26-.45-.26-.16,0-.29.06-.39.17-.1.1-.14.23-.14.38s.05.28.15.38c.09.11.21.16.36.16h.46v.05c0,.09-.02.2-.05.31-.01.04-.03.09-.05.15h-.33c-.21,0-.41-.06-.59-.19-.24-.17-.36-.42-.36-.75,0-.3.1-.54.3-.74.18-.17.38-.26.61-.26.34,0,.6.1.79.3.2.21.31.51.31.89v.22c0,.19-.06.43-.17.71-.13.32-.3.61-.51.88-.26.32-.53.55-.84.71v-.05c.25-.25.49-.59.72-1.02.25-.48.38-.87.38-1.17v-.27Z"/>
      <path class="cls-6" d="M114.65,49.36c0,.24-.1.48-.31.72-.23.26-.53.45-.91.57.32-.31.53-.57.65-.78.1-.18.15-.39.15-.62v-.86c0-.28.08-.51.26-.68.18-.19.43-.28.75-.28h.86v1.41h.4v.51h-1.6v-.51h.77v-1.09h-.37c-.2,0-.36.08-.48.23-.11.14-.16.29-.16.47v.91Z"/>
      <rect class="cls-6" x="117.29" y="48.04" width=".52" height="2.12" transform="translate(68.2 166.55) rotate(-89.88)"/>
      <rect class="cls-6" x="119.42" y="48.04" width=".52" height="2.13" transform="translate(70.32 168.67) rotate(-89.88)"/>
      <path class="cls-6" d="M121.64,48.85v-.82s0-.08-.02-.12c-.03-.1-.12-.15-.25-.15h-.11v-.15l.8-.17v1.41h.4v.51h-1.73v-.51h.9ZM121.29,50.13c.07,0,.13.03.18.09.05.06.08.13.08.21s-.02.16-.08.22c-.05.05-.11.09-.18.09s-.13-.03-.18-.09c-.05-.06-.07-.13-.07-.22s.02-.16.07-.22c.05-.06.11-.08.18-.08M121.91,50c.07,0,.13.03.18.09.05.06.07.13.07.22s-.02.15-.07.21c-.05.06-.11.09-.18.09s-.13-.03-.18-.09c-.05-.06-.07-.13-.07-.21s.02-.16.07-.22c.05-.06.11-.09.18-.09"/>
      <path class="cls-6" d="M123.1,48.85v-2.89s0-.08-.02-.12c-.03-.1-.12-.15-.25-.15h-.11v-.15l.8-.17v3.47h.4v.51h-1.46v-.51h.64Z"/>
      <rect class="cls-6" x="124.73" y="48.04" width=".52" height="2.12" transform="translate(75.62 173.99) rotate(-89.88)"/>
      <rect class="cls-6" x="126.85" y="48.04" width=".52" height="2.12" transform="translate(77.74 176.11) rotate(-89.88)"/>
      <path class="cls-6" d="M131.23,49.36h-3.06v-.51h1.01c-.06-.05-.17-.21-.32-.48-.11-.19-.25-.29-.42-.29.05-.2.15-.34.3-.45.12-.08.28-.14.49-.17.13-.01.31-.02.55-.02h.22c.26,0,.46.06.61.19.15.13.23.33.23.59,0,.14-.02.27-.05.37-.03.11-.08.2-.14.27h.59v.51ZM130.4,48.14c0-.13-.05-.23-.15-.29-.1-.06-.25-.09-.43-.09h-.05c-.21,0-.34.01-.41.03-.11.04-.17.13-.17.27,0,.13.1.29.31.5.21.2.38.3.53.3.09-.06.14-.12.18-.17.12-.13.18-.26.18-.39v-.15Z"/>
      <path class="cls-6" d="M132.14,48.85v-.82s0-.08-.01-.12c-.04-.1-.12-.15-.25-.15h-.11v-.15l.8-.17v1.41h.4v.51h-1.73v-.51h.91ZM131.68,46.63c.07,0,.13.03.18.09.05.06.07.13.07.22,0,.08-.02.15-.07.21-.05.06-.11.09-.18.09s-.13-.03-.18-.09c-.05-.06-.07-.13-.07-.21,0-.09.02-.16.07-.22.05-.06.11-.09.18-.09M132.3,46.51c.07,0,.13.03.18.09.05.06.07.13.07.22,0,.08-.03.15-.08.21-.05.06-.11.09-.18.09-.07,0-.13-.03-.18-.09-.05-.06-.07-.13-.07-.22s.02-.16.07-.22c.05-.06.11-.09.18-.09"/>
      <path class="cls-6" d="M133.6,48.85v-2.89s0-.08-.02-.12c-.03-.1-.12-.15-.25-.15h-.11v-.15l.8-.17v3.47h.4v.51h-1.46v-.51h.64Z"/>
      <path class="cls-6" d="M135.06,48.85v-2.89s0-.08-.02-.12c-.03-.1-.12-.15-.25-.15h-.11v-.15l.8-.17v3.47c0,.13.05.23.13.32.03.03.07.06.13.09v.11h-1.33v-.51h.64Z"/>
      <path class="cls-6" d="M83.15,57.43c0-.06-.06-.12-.2-.2-.43-.23-.65-.35-.65-.36-.16-.13-.27-.27-.35-.41-.09-.17-.14-.35-.14-.53,0-.37.12-.68.35-.92.22-.23.49-.34.8-.34.27,0,.52.11.74.33.22.22.34.47.34.75v.52h.22v.52h-.3c-.08,0-.16-.04-.24-.13-.08-.08-.11-.18-.11-.28v-.61c0-.18-.06-.35-.19-.52-.13-.18-.29-.26-.46-.26-.19,0-.36.09-.51.26-.15.18-.23.4-.23.66,0,.16.04.3.11.43.09.15.22.29.4.41.13.09.34.19.64.31.2.08.29.16.29.25,0,.13-.08.27-.23.4-.16.15-.37.27-.63.37-.3.1-.61.16-.95.16-.31,0-.63-.1-.95-.3-.34-.21-.5-.41-.5-.62,0-.08.13-.23.39-.44.24-.2.46-.35.67-.46v.08c-.11.11-.19.2-.24.27-.16.2-.24.34-.24.43,0,.13.11.29.33.48.22.18.42.27.59.27.27,0,.54-.07.82-.2.28-.13.42-.24.42-.33M81.92,58.72c.07,0,.13.03.18.09.05.06.08.13.08.21s-.02.16-.08.22c-.05.06-.11.09-.18.09-.07,0-.13-.03-.18-.09-.05-.06-.07-.13-.07-.22s.02-.16.07-.21c.05-.06.11-.09.18-.09M82.54,58.59c.07,0,.13.03.18.09.05.06.07.13.07.22,0,.08-.02.15-.07.21-.05.06-.11.09-.18.09-.07,0-.13-.03-.18-.09-.05-.06-.08-.13-.08-.21,0-.09.03-.16.08-.22.05-.06.1-.09.18-.09"/>
      <rect class="cls-6" x="84.27" y="56.27" width="2.12" height=".52"/>
      <rect class="cls-6" x="86.39" y="56.27" width="2.12" height=".52"/>
      <rect class="cls-6" x="88.51" y="56.27" width="2.12" height=".52"/>
      <rect class="cls-6" x="90.64" y="56.27" width="2.12" height=".52"/>
      <path class="cls-6" d="M93.66,56.27v-.82s0-.09-.02-.11c-.03-.11-.12-.15-.25-.15h-.11v-.15l.8-.17v1.41h.4v.52h-1.73v-.52h.91ZM93.56,53.6c.07,0,.13.03.18.09.05.06.08.13.08.22,0,.08-.02.15-.08.21-.05.06-.11.09-.18.09-.07,0-.13-.03-.18-.09-.05-.06-.08-.13-.08-.21,0-.09.02-.16.08-.22.05-.06.11-.09.18-.09"/>
      <rect class="cls-6" x="94.49" y="56.27" width="2.12" height=".52"/>
      <rect class="cls-6" x="96.61" y="56.27" width="2.12" height=".52"/>
      <path class="cls-6" d="M100.51,55.18h-.28c-.12,0-.25.04-.35.12-.14.1-.21.25-.21.42v.35h-.41v-.26c0-.32.08-.55.24-.72.15-.16.35-.24.61-.24h.4v-.05c0-.09-.02-.16-.07-.2-.05-.05-.11-.07-.2-.07h-.1v-.15l.8-.17v.64h.33c.3,0,.54.08.69.24.15.16.23.4.23.72v.45h.4v.52h-3.86v-.52h1.78v-1.09ZM100.94,56.27h.83v-.56c0-.17-.07-.31-.22-.41-.12-.08-.25-.12-.38-.12h-.23v1.09Z"/>
      <path class="cls-6" d="M105.38,56.79h-2.79v-.52h1.97v-1.09h-.37c-.2,0-.36.07-.48.22-.11.13-.16.29-.16.47v.21h-.43v-.26c0-.28.08-.51.25-.68.18-.19.43-.28.75-.28h.86v1.41h.4v.52Z"/>
      <path class="cls-6" d="M106.02,56.27v-2.89s0-.08-.02-.12c-.03-.1-.12-.15-.25-.15h-.11v-.15l.8-.17v3.47c0,.13.05.23.13.32.03.03.07.06.13.09v.11h-1.33v-.52h.64Z"/>
      <path class="cls-6" d="M108.36,56.79h-.96v-.11c.06-.03.1-.06.13-.09.09-.08.13-.19.13-.32v-2.88c0-.09-.02-.16-.07-.2-.04-.04-.11-.07-.19-.07h-.11v-.15l.8-.17v3.47c0,.13.05.23.13.32.03.03.07.06.14.09v.11Z"/>
      <path class="cls-6" d="M110.54,56.05c0-.24-.06-.44-.19-.62-.13-.17-.27-.25-.45-.25-.16,0-.3.05-.39.16-.09.11-.14.23-.14.38s.05.28.14.38c.1.11.21.16.36.16h.46v.05c0,.09-.02.2-.05.31-.01.04-.03.09-.05.15h-.33c-.22,0-.41-.06-.59-.18-.24-.17-.36-.42-.36-.74,0-.3.1-.55.3-.74.18-.17.38-.26.61-.26.34,0,.61.1.8.29.2.21.31.5.31.9v.22c0,.19-.06.43-.17.72-.13.32-.3.61-.51.88-.25.32-.53.55-.84.71v-.05c.25-.25.49-.59.72-1.02.25-.48.38-.87.38-1.18v-.27Z"/>
      <path class="cls-6" d="M116.65,57.43c0-.06-.07-.12-.2-.2-.43-.23-.65-.35-.65-.36-.16-.13-.27-.27-.35-.41-.1-.17-.14-.35-.14-.53,0-.37.12-.68.35-.92.22-.23.49-.34.8-.34.27,0,.52.11.75.33.22.22.34.47.34.75v.52h.22v.52h-.3c-.08,0-.16-.04-.23-.13-.08-.08-.12-.18-.12-.28v-.61c0-.18-.06-.35-.19-.52-.13-.18-.29-.26-.46-.26-.19,0-.36.09-.5.26-.15.18-.23.4-.23.66,0,.16.03.3.11.43.08.15.22.29.4.41.12.09.34.19.64.31.19.08.29.16.29.25,0,.13-.07.27-.22.4-.16.15-.37.27-.63.37-.3.1-.61.16-.95.16-.31,0-.63-.1-.96-.3-.34-.21-.5-.41-.5-.62,0-.08.13-.23.39-.44.24-.2.47-.35.67-.46v.08c-.11.11-.19.2-.24.27-.16.2-.24.34-.24.43,0,.13.11.29.33.48.22.18.41.27.59.27.27,0,.54-.07.83-.2.28-.13.42-.24.42-.33M115.42,58.72c.07,0,.13.03.18.09.05.06.08.13.08.21s-.03.16-.07.22c-.05.06-.11.09-.18.09-.07,0-.13-.03-.17-.09-.05-.06-.08-.13-.08-.22s.03-.16.08-.21c.05-.06.11-.09.17-.09M116.04,58.59c.08,0,.13.03.18.09.05.06.07.13.07.22,0,.08-.03.15-.07.21-.05.06-.11.09-.18.09-.07,0-.12-.03-.18-.09-.05-.06-.07-.13-.07-.21,0-.09.02-.16.07-.22.05-.06.11-.09.18-.09"/>
      <rect class="cls-6" x="117.77" y="56.27" width="2.13" height=".52"/>
      <rect class="cls-6" x="119.89" y="56.27" width="2.12" height=".52"/>
      <path class="cls-6" d="M122.92,56.27v-.82s0-.09-.02-.11c-.03-.11-.12-.15-.25-.15h-.11v-.15l.8-.17v1.41h.4v.52h-1.73v-.52h.91ZM122.81,53.6c.07,0,.13.03.18.09.05.06.07.13.07.22,0,.08-.02.15-.07.21-.05.06-.11.09-.18.09-.07,0-.13-.03-.18-.09-.05-.06-.07-.13-.07-.21,0-.09.03-.16.07-.22.05-.06.11-.09.18-.09"/>
      <rect class="cls-6" x="123.74" y="56.27" width="2.12" height=".52"/>
      <rect class="cls-6" x="125.86" y="56.27" width="2.12" height=".52"/>
      <path class="cls-6" d="M131.05,56.78h-3.06v-.52h2.23v-.47c0-.25-.08-.47-.23-.66-.15-.19-.33-.28-.52-.28-.14,0-.27.04-.36.12-.11.09-.17.22-.17.38,0,.12.05.25.15.38.12.16.3.26.52.31h-.77c-.08-.04-.16-.1-.21-.2-.07-.11-.1-.25-.1-.4,0-.27.09-.49.27-.66.18-.17.41-.25.68-.25.34,0,.62.12.84.36.22.25.33.55.33.92v.45h.4v.52ZM128.65,53.28c.07,0,.13.03.18.09.05.06.07.13.07.21s-.02.16-.07.21c-.05.06-.11.09-.18.09s-.13-.03-.18-.09c-.05-.06-.08-.13-.08-.21s.03-.16.08-.22c.05-.06.11-.09.18-.09M129.26,53.16c.07,0,.13.03.18.09.05.05.07.13.07.22s-.03.15-.08.21c-.05.06-.11.09-.18.09s-.13-.03-.18-.09c-.05-.06-.07-.13-.07-.21s.02-.16.07-.22c.05-.06.11-.09.18-.09"/>
      <path class="cls-6" d="M131.95,56.27v-.82s0-.09-.02-.11c-.03-.11-.12-.15-.25-.15h-.11v-.15l.8-.17v1.41h.4v.52h-1.73v-.52h.9ZM131.49,54.05c.07,0,.13.03.18.09.05.06.08.13.08.22s-.02.15-.08.21c-.04.06-.11.09-.18.09-.07,0-.13-.03-.18-.09-.05-.06-.08-.13-.08-.21s.03-.16.07-.22c.05-.06.11-.09.18-.09M132.11,53.93c.07,0,.13.03.18.09.05.06.07.13.07.22,0,.08-.02.15-.07.21-.05.06-.11.09-.18.09s-.13-.03-.18-.09c-.05-.06-.07-.13-.07-.22s.03-.16.07-.22c.05-.06.11-.09.18-.09"/>
      <path class="cls-6" d="M133.42,56.27v-2.89s-.01-.08-.02-.12c-.03-.1-.12-.15-.25-.15h-.11v-.15l.8-.17v3.47c0,.13.04.23.13.32.03.03.08.06.14.09v.11h-1.33v-.52h.64Z"/>
      <path class="cls-6" d="M135.75,56.79h-.96v-.11c.06-.03.1-.06.13-.09.09-.08.13-.19.13-.32v-2.88c0-.09-.02-.16-.07-.2-.05-.04-.11-.07-.2-.07h-.11v-.15l.8-.17v3.47c0,.13.05.23.13.32.03.03.07.06.13.09v.11Z"/>
      <rect class="cls-6" x="77.14" y="37.64" width=".62" height="20.89"/>
      <path class="cls-6" d="M21.72,42.11h-.06c-.06,0-.09-.05-.09-.11v-1.85h-2.06v1.85c0,.06-.04.11-.09.11h-.06c-.05,0-.09-.05-.09-.11v-2.99c0-.74.24-1.09,1.08-1.09h.39c.84,0,1.08.35,1.08,1.09v2.99c0,.06-.04.11-.09.11M21.57,39.01c0-.64-.18-.86-.84-.86h-.39c-.65,0-.83.21-.83.86v.89h2.06v-.89Z"/>
      <path class="cls-6" d="M21.73,42.22h-.06c-.11,0-.2-.09-.2-.22v-1.75h-1.84v1.75c0,.12-.09.22-.2.22h-.06c-.11,0-.2-.1-.2-.22v-2.99c0-.85.34-1.2,1.19-1.2h.39c.85,0,1.19.35,1.19,1.2v2.99c0,.12-.09.22-.2.22M20.35,38.03c-.73,0-.97.25-.97.98v2.99h.04s-.01-1.96-.01-1.96h2.27v1.96h.03v-2.99c0-.73-.25-.98-.97-.98h-.39ZM21.68,40.01h-2.27v-1c0-.72.24-.96.94-.96h.39c.71,0,.94.24.94.96v1ZM19.62,39.8h1.84v-.78c0-.6-.14-.75-.73-.75h-.39c-.58,0-.72.15-.72.75v.78Z"/>
      <path class="cls-6" d="M24.07,42.14c-.32,0-.7-.06-.94-.11-.07-.02-.08-.04-.08-.11v-3.9c0-.06.04-.11.1-.11h.06c.06,0,.1.05.1.11v1.11c.23-.05.56-.08.78-.08.73,0,1.11.46,1.11,1.34v.37c0,.81-.33,1.37-1.11,1.37M24.93,40.4c0-.74-.24-1.12-.86-1.12-.22,0-.57.03-.78.07v2.5c.2.03.51.07.78.07.63,0,.86-.42.86-1.15v-.37Z"/>
      <path class="cls-6" d="M24.07,42.25c-.39,0-.84-.08-.96-.11-.12-.03-.17-.09-.17-.21v-3.89c0-.12.09-.22.2-.22h.06c.11,0,.21.1.21.22v.98c.21-.04.47-.06.67-.06.55,0,1.21.25,1.21,1.45v.37c0,.95-.43,1.48-1.21,1.48M23.39,41.97c.19.03.45.06.68.06.82,0,1-.69,1-1.26v-.37c0-.83-.32-1.24-1-1.24-.12,0-.26,0-.4.03.14-.01.29-.02.4-.02.87,0,.96.7.96,1.23v.37c0,.85-.32,1.26-.96,1.26-.23,0-.48-.03-.68-.06M23.15,41.93s.02,0,.03,0v-3.9h-.04s.01,3.89.01,3.89ZM23.4,41.76c.18.03.44.06.67.06.52,0,.75-.31.75-1.04v-.37c0-.72-.22-1.02-.75-1.02-.19,0-.47.02-.67.05v2.32Z"/>
      <path class="cls-6" d="M27.35,42.14h-.11c-.38,0-1.02-.2-1.02-1.13v-1.81c0-.06.04-.11.1-.11h.06c.06,0,.09.05.09.11v1.81c0,.72.39.9.77.9h.11c.38,0,.77-.18.77-.9v-1.81c0-.06.04-.11.1-.11h.06c.06,0,.1.05.1.11v1.81c0,.93-.64,1.13-1.02,1.13"/>
      <path class="cls-6" d="M27.35,42.25h-.11c-.52,0-1.13-.33-1.13-1.24v-1.81c0-.12.09-.22.2-.22h.06c.11,0,.2.1.2.22v1.81c0,.53.22.79.66.79h.11c.44,0,.66-.26.66-.79v-1.81c0-.12.09-.22.21-.22h.05c.12,0,.21.1.21.22v1.81c0,.92-.61,1.24-1.13,1.24M26.32,39.19v1.82c.01.95.71,1.03.92,1.03h.11c.21,0,.91-.07.91-1.03v-1.81h-.04s.01,1.81.01,1.81c0,.88-.55,1.01-.88,1.01h-.11c-.33,0-.88-.13-.88-1.01v-1.81h-.05Z"/>
      <path class="cls-6" d="M32.5,42.14c-.45,0-.76-.02-.92-.05-.05-.01-.1-.06-.1-.11v-3.94c0-.05.05-.09.1-.11.16-.03.47-.05.92-.05.96,0,1.64.46,1.64,1.78v.7c0,1.3-.69,1.77-1.64,1.77M33.9,39.67c0-1.2-.61-1.56-1.39-1.56-.33,0-.52.02-.77.03v3.75c.25.02.44.02.77.02.79,0,1.39-.36,1.39-1.55v-.7Z"/>
      <path class="cls-6" d="M32.51,42.25c-.44,0-.76-.02-.94-.05-.11-.02-.19-.11-.19-.21v-3.94c0-.1.08-.19.18-.21.17-.03.49-.05.95-.05,1.14,0,1.75.65,1.75,1.88v.7c0,1.56-.95,1.88-1.75,1.88M31.68,42c.18.02.47.03.83.03,1.02,0,1.53-.56,1.53-1.67v-.7c0-1.12-.5-1.67-1.53-1.67-.55,0-.79.02-.9.04v3.94s.01,0,.02,0v-3.95h.21c.2-.03.39-.04.66-.04.99,0,1.5.56,1.5,1.67v.7c0,1.1-.51,1.66-1.5,1.66-.33,0-.52,0-.78-.02h-.05ZM31.84,41.8c.2.01.39.02.66.02.86,0,1.28-.47,1.28-1.44v-.7c0-.99-.41-1.45-1.28-1.45-.27,0-.45.01-.65.03h-.02v3.55Z"/>
      <path class="cls-6" d="M37.24,42.14h-.06c-.05,0-.09-.05-.09-.11v-1.9c0-.55-.23-.86-.83-.86-.24,0-.54.04-.76.1v2.66c0,.06-.04.11-.1.11h-.06c-.06,0-.1-.05-.1-.11v-4c0-.06.04-.11.1-.11h.06c.06,0,.1.05.1.11v1.12c.22-.05.51-.1.76-.1.78,0,1.07.45,1.07,1.08v1.9c0,.06-.03.11-.09.11"/>
      <path class="cls-6" d="M37.24,42.25h-.06c-.11,0-.2-.09-.2-.21v-1.9c0-.53-.22-.75-.72-.75-.2,0-.45.03-.65.08v2.57c0,.12-.09.21-.2.21h-.06c-.11,0-.2-.1-.2-.21v-4c0-.12.09-.21.2-.21h.06c.11,0,.2.1.2.21v.99c.22-.05.46-.07.65-.07.76,0,1.18.42,1.18,1.19v1.9c0,.12-.09.21-.2.21M36.26,39.17c.63,0,.94.32.94.97v1.9h.02v-1.9c0-.65-.32-.97-.97-.97-.14,0-.28.02-.42.04.14-.02.29-.03.42-.03M35.4,38.03h-.05s.01,4,.01,4h.05v-4Z"/>
      <path class="cls-6" d="M40.35,42.02c-.27.08-.57.12-.85.12-.86,0-1.13-.29-1.13-.91v-.07c0-.59.36-.87,1.39-.87h.43v-.2c0-.59-.16-.82-.71-.82-.37,0-.54.02-.8.05-.07,0-.13-.02-.13-.08v-.03c0-.06.04-.1.13-.1.24-.03.43-.05.8-.05.76,0,.95.43.95,1.04v1.81c0,.07-.02.1-.08.12M40.19,40.52h-.43c-.85,0-1.13.16-1.13.64v.07c0,.46.15.69.88.69.28,0,.57-.04.69-.07v-1.34Z"/>
      <path class="cls-6" d="M39.5,42.25c-.87,0-1.24-.3-1.24-1.01v-.07c0-.69.45-.98,1.5-.98h.33v-.09c0-.55-.13-.71-.6-.71-.32,0-.48.02-.7.04h-.12c-.05.01-.1,0-.14-.03-.05-.04-.08-.09-.08-.15v-.03s.02-.19.23-.21h.04c.22-.03.41-.05.77-.05.95,0,1.06.65,1.06,1.14v1.81s0,.18-.17.22c-.29.08-.59.12-.87.12M39.75,40.4c-1.06,0-1.28.3-1.28.76v.07c0,.49.17.8,1.03.8.12,0,.25,0,.38-.03-.12.01-.25.02-.38.02-.72,0-.99-.22-.99-.79v-.07c0-.62.48-.75,1.24-.75h.54v1.51s.02,0,.02,0v-1.82c0-.66-.24-.93-.84-.93-.34,0-.53.02-.75.05h-.04s-.04.01-.04.01c0,0,0,0-.01,0l.02.11v-.11s.1,0,.1,0c.22-.02.39-.04.72-.04.68,0,.82.37.82.92v.31h-.54ZM39.75,40.63c-.87,0-1.03.17-1.03.53v.07c0,.35.05.58.77.58.23,0,.46-.03.58-.05v-1.14h-.33Z"/>
      <path class="cls-6" d="M42.63,42.14c-.32,0-.7-.06-.94-.11-.07-.02-.08-.04-.08-.11v-3.9c0-.06.04-.11.1-.11h.06c.05,0,.09.05.09.11v1.11c.23-.05.56-.08.78-.08.73,0,1.1.46,1.1,1.34v.37c0,.81-.33,1.37-1.1,1.37M43.48,40.4c0-.74-.23-1.12-.85-1.12-.22,0-.57.03-.78.07v2.5c.21.03.51.07.78.07.63,0,.85-.42.85-1.15v-.37Z"/>
      <path class="cls-6" d="M42.63,42.25c-.38,0-.8-.07-.97-.11-.12-.03-.17-.1-.17-.21v-3.89c0-.12.09-.22.21-.22h.05c.11,0,.2.1.2.22v.98c.21-.04.47-.06.67-.06.55,0,1.21.25,1.21,1.45v.37c0,.95-.43,1.48-1.21,1.48M41.94,41.97c.19.03.45.06.69.06.82,0,1-.69,1-1.26v-.37c0-.83-.33-1.24-1-1.24-.11,0-.25,0-.39.02.14-.01.28-.02.39-.02.86,0,.96.7.96,1.23v.37c0,.85-.32,1.26-.96,1.26-.23,0-.49-.03-.69-.06M41.74,38.03h-.04s.01,3.89.01,3.89c0,0,.02,0,.03,0v-3.9ZM41.96,41.76c.2.03.45.06.67.06.52,0,.75-.31.75-1.04v-.37c0-.72-.22-1.02-.75-1.02-.19,0-.47.02-.67.05v2.32Z"/>
      <path class="cls-6" d="M45.01,38.53h-.03c-.06,0-.11-.04-.11-.11v-.42c0-.05.05-.11.11-.11h.03c.06,0,.11.05.11.11v.42c0,.06-.05.11-.11.11M45.01,42.14h-.03c-.06,0-.11-.05-.11-.11v-2.84c0-.06.05-.11.11-.11h.03c.06,0,.11.05.11.11v2.84c0,.06-.05.11-.11.11"/>
      <path class="cls-6" d="M45.01,42.25h-.03c-.12,0-.21-.1-.21-.21v-2.84c0-.12.1-.22.21-.22h.03c.12,0,.22.1.22.22v2.84c0,.12-.1.21-.22.21M44.98,39.19v2.84s.03,0,.03,0v-2.84s-.03,0-.03,0ZM45.01,38.63h-.03c-.12,0-.21-.1-.21-.22v-.42c0-.12.1-.21.21-.21h.03c.12,0,.22.1.22.21v.42c0,.12-.09.22-.22.22M45.01,38h-.03s0,.42,0,.42h.03s0,0,0,0v-.41Z"/>
      <path class="cls-6" d="M50.56,42.09c-.15.02-.45.06-.97.06-.7,0-1.38-.41-1.38-1.75v-.74c0-1.35.67-1.75,1.38-1.75.52,0,.83.04.97.06.05,0,.11.04.11.09v.07c0,.06-.03.07-.07.07h-.03c-.2-.02-.62-.05-.97-.05-.63,0-1.13.41-1.13,1.52v.74c0,1.11.5,1.52,1.13,1.52.35,0,.77-.03.97-.05h.03s.07,0,.07.07v.07c0,.06-.06.09-.11.09"/>
      <path class="cls-6" d="M49.58,42.25c-.45,0-1.48-.18-1.48-1.86v-.74c0-1.62.93-1.86,1.48-1.86.52,0,.83.04.98.06.13.01.21.1.21.2v.07c0,.11-.07.18-.18.18h-.03c-.2-.02-.62-.05-.97-.05-.67,0-1.02.49-1.02,1.41v.74c0,.92.35,1.41,1.02,1.41.36,0,.78-.03.96-.05h.05c.17,0,.18.13.18.17v.07c0,.1-.08.19-.2.2-.15.02-.46.06-.99.06M49.58,38c-.58,0-1.27.28-1.27,1.65v.74c0,1.36.69,1.64,1.27,1.64.51,0,.81-.04.96-.06v-.02c-.18.02-.6.05-.96.05-.46,0-1.24-.21-1.24-1.62v-.74c0-1.41.78-1.63,1.24-1.63.34,0,.75.03.97.05v-.03c-.17,0-.47-.04-.97-.04"/>
      <path class="cls-6" d="M53.73,40.65h-1.9v.12c0,.95.46,1.15,1.02,1.15.25,0,.56-.04.83-.09.01,0,.02,0,.04,0,.04,0,.08.02.08.08v.04c0,.06-.02.09-.11.11-.27.06-.59.1-.84.1-.7,0-1.26-.3-1.26-1.37v-.37c0-.77.39-1.34,1.14-1.34s1.12.54,1.12,1.34v.15c0,.06-.05.11-.11.11M53.59,40.4c0-.71-.24-1.12-.87-1.12s-.89.46-.89,1.12v.03h1.76v-.03Z"/>
      <path class="cls-6" d="M52.84,42.25c-.91,0-1.37-.5-1.37-1.48v-.37c0-.88.49-1.45,1.24-1.45s1.23.53,1.23,1.44v.15c0,.12-.09.21-.21.21h-1.79c0,.93.44,1.05.91,1.05.22,0,.51-.03.81-.09.04,0,.05,0,.06,0,.11,0,.19.08.19.19v.04c0,.15-.11.19-.19.21-.29.06-.62.1-.87.1M52.71,39.17c-.63,0-1.03.47-1.03,1.24v.37c0,.86.37,1.26,1.15,1.26.23,0,.55-.04.82-.09.02,0,.03,0,.03,0,0,0-.01,0-.02,0-.16.03-.52.1-.83.1-.48,0-1.13-.13-1.13-1.26v-.23h2.01v-.15c0-.56-.18-1.23-1.01-1.23M53.7,40.54h-1.98v-.14c0-.78.36-1.23,1-1.23s.98.4.98,1.23v.14ZM51.94,40.32h1.54c-.02-.65-.25-.94-.76-.94-.61,0-.76.49-.78.94"/>
      <path class="cls-6" d="M56.94,42.14h-.06c-.05,0-.1-.05-.1-.11v-1.94c0-.7-.33-.8-.7-.8h-.24c-.38,0-.7.1-.7.8v1.94c0,.06-.04.11-.09.11h-.06c-.06,0-.1-.05-.1-.11v-1.94c0-.95.56-1.03.95-1.03h.24c.39,0,.95.09.95,1.03v1.94c0,.06-.04.11-.09.11"/>
      <path class="cls-6" d="M56.94,42.25h-.06c-.11,0-.2-.1-.2-.21v-1.94c0-.64-.27-.69-.6-.69h-.24c-.33,0-.6.05-.6.69v1.94c0,.12-.09.21-.2.21h-.06c-.11,0-.2-.1-.2-.21v-1.94c0-1.14.8-1.14,1.06-1.14h.24c.26,0,1.06,0,1.06,1.14v1.94c0,.12-.09.21-.2.21M55.84,39.19h.24c.4,0,.81.11.81.91v1.94h.03s0-1.94,0-1.94c0-.82-.43-.93-.84-.93h-.24c-.42,0-.85.11-.85.93v1.94h.05s-.01-1.94-.01-1.94c0-.8.41-.91.81-.91"/>
      <path class="cls-6" d="M59.37,42.12c-.07.01-.26.02-.42.02-.5,0-.77-.17-.77-.72v-2.97c0-.06.05-.11.1-.11h.05c.06,0,.1.05.1.11v.63h.95c.06,0,.11.03.11.09v.05c0,.05-.05.09-.11.09h-.95v2.1c0,.43.14.5.52.5h.42c.08,0,.12.02.12.07v.04s-.01.08-.12.09"/>
      <path class="cls-6" d="M58.94,42.25c-.41,0-.88-.09-.88-.83v-2.97c0-.12.1-.22.21-.22h.05c.12,0,.21.1.21.22v.52h.84c.12,0,.22.08.22.2v.05c0,.11-.09.2-.22.2h-.84v2c0,.36.07.39.41.39h.43c.2,0,.23.13.23.18v.04c0,.08-.04.17-.21.2-.09.01-.29.02-.44.02M58.27,38.45v2.97c0,.45.18.61.67.61.09,0,.18,0,.26,0h-.26c-.42,0-.63-.09-.63-.61v-2.21h1.05v-.03s-1.05.02-1.05.02v-.74h-.04Z"/>
      <path class="cls-6" d="M61.46,39.28h-.18c-.29,0-.44.03-.61.13v2.62c0,.06-.04.11-.1.11h-.06c-.06,0-.09-.05-.09-.11v-2.67s.03-.08.05-.09c.28-.17.51-.22.81-.22.25,0,.28.03.28.1v.03c0,.07-.04.09-.12.09"/>
      <path class="cls-6" d="M60.57,42.25h-.06c-.11,0-.2-.09-.2-.21v-2.67c0-.1.06-.16.11-.19.27-.17.52-.23.86-.23.18,0,.39,0,.39.21v.03c0,.06-.02.2-.22.2h-.18c-.24,0-.37.02-.5.09v2.56c0,.12-.09.21-.2.21M60.56,39.35s-.02.01-.03.02v2.67h.03v-2.68ZM61.29,39.16c-.08,0-.15,0-.22.01.06,0,.13,0,.21,0h.14s-.07,0-.13,0"/>
      <path class="cls-6" d="M64.44,40.65h-1.9v.12c0,.95.46,1.15,1.02,1.15.25,0,.56-.04.83-.09.01,0,.02,0,.03,0,.05,0,.08.02.08.08v.04c0,.06-.02.09-.1.11-.27.06-.59.1-.84.1-.7,0-1.27-.3-1.27-1.37v-.37c0-.77.39-1.34,1.14-1.34s1.12.54,1.12,1.34v.15c0,.06-.05.11-.1.11M64.3,40.4c0-.71-.24-1.12-.87-1.12s-.89.46-.89,1.12v.03h1.76v-.03Z"/>
      <path class="cls-6" d="M63.56,42.25c-.91,0-1.38-.5-1.38-1.48v-.37c0-.88.49-1.45,1.25-1.45s1.23.53,1.23,1.44v.15c0,.12-.1.21-.21.21h-1.79c0,.93.44,1.05.91,1.05.22,0,.51-.03.81-.09.03,0,.04,0,.06,0,.11,0,.19.08.19.19v.04c0,.15-.11.2-.19.21-.29.06-.61.1-.87.1M62.82,39.36c-.27.21-.42.57-.42,1.04v.37c0,.86.37,1.26,1.16,1.26.23,0,.55-.04.82-.09.02,0,.03,0,.03,0h-.02c-.16.04-.52.1-.83.1-.48,0-1.13-.13-1.13-1.26v-.23h2.01v-.15c0-.56-.18-1.23-1.01-1.23-.15,0-.29.03-.42.08.12-.05.26-.08.42-.08.66,0,.98.4.98,1.23v.14h-1.98v-.14c0-.49.13-.84.39-1.04M62.65,40.32h1.54c-.02-.65-.25-.94-.76-.94s-.76.32-.78.94"/>
      <path class="cls-6" d="M68.75,38.12h-.43c-.38,0-.52.07-.52.5v.46h.95c.06,0,.11.03.11.09v.05c0,.05-.05.09-.11.09h-.95v2.72c0,.06-.04.11-.1.11h-.04c-.06,0-.11-.05-.11-.11v-3.41c0-.56.27-.72.77-.72.17,0,.35,0,.43.02.1.01.12.05.12.09v.04c0,.05-.03.07-.12.07"/>
      <path class="cls-6" d="M67.7,42.25h-.04c-.12,0-.21-.1-.21-.21v-3.41c0-.74.47-.83.88-.83.16,0,.36,0,.44.02.14.02.21.09.21.2v.04c0,.05-.02.18-.23.18h-.43c-.33,0-.42.04-.42.4v.36h.84c.13,0,.22.08.22.2v.05c0,.11-.09.2-.22.2h-.84v2.61c0,.12-.09.21-.21.21M68.32,38c-.49,0-.66.16-.66.62v3.41h.03s0-2.83,0-2.83h1.06v-.03l-1.06.02v-.57c0-.52.22-.61.63-.61h.24c-.07,0-.16,0-.24,0"/>
      <path class="cls-6" d="M70.6,42.14c-.77,0-1.16-.5-1.16-1.35v-.39c0-.85.39-1.34,1.16-1.34s1.16.49,1.16,1.34v.39c0,.85-.39,1.35-1.16,1.35M71.51,40.4c0-.69-.25-1.12-.91-1.12s-.91.43-.91,1.12v.39c0,.7.25,1.13.91,1.13s.91-.43.91-1.13v-.39Z"/>
      <path class="cls-6" d="M70.6,42.25c-.82,0-1.27-.52-1.27-1.46v-.39c0-.94.45-1.45,1.27-1.45s1.27.52,1.27,1.45v.39c0,.94-.45,1.46-1.27,1.46M70.6,39.17c-.87,0-1.05.67-1.05,1.24v.39c0,.57.18,1.24,1.05,1.24s1.05-.67,1.05-1.24v-.39c0-.56-.18-1.24-1.05-1.24M70.6,42.03c-.68,0-1.02-.41-1.02-1.24v-.39c0-1.02.55-1.23,1.02-1.23s1.02.22,1.02,1.23v.39c0,.82-.34,1.24-1.02,1.24M70.6,39.38c-.55,0-.8.32-.8,1.02v.39c0,.7.25,1.02.8,1.02s.8-.32.8-1.02v-.39c0-.69-.25-1.02-.8-1.02"/>
      <path class="cls-6" d="M73.87,39.28h-.17c-.29,0-.44.03-.61.13v2.62c0,.06-.04.11-.1.11h-.06c-.06,0-.09-.05-.09-.11v-2.67s.03-.08.05-.09c.27-.17.51-.22.81-.22.25,0,.29.03.29.1v.03c0,.07-.04.09-.12.09"/>
      <path class="cls-6" d="M72.99,42.25h-.06c-.11,0-.2-.09-.2-.21v-2.67c0-.09.06-.16.1-.19.27-.17.52-.23.86-.23.18,0,.4,0,.4.21v.03s-.02.2-.23.2h-.18c-.24,0-.37.02-.5.09v2.56c0,.12-.09.21-.2.21M72.97,39.35s-.02.01-.03.02v2.67s.03,0,.03,0v-2.68ZM73.7,39.16c-.08,0-.15,0-.22.01.06,0,.14,0,.22,0h.14s-.07,0-.13,0"/>
      <path class="cls-6" d="M22.02,45.67h-1.2v3.84c0,.05-.04.11-.1.11h-.06c-.05,0-.09-.05-.09-.11v-3.84h-1.21c-.06,0-.11-.03-.11-.09v-.05c0-.06.04-.1.11-.1h2.65c.06,0,.11.04.11.1v.05c0,.05-.05.09-.11.09"/>
      <path class="cls-6" d="M20.72,49.73h-.06c-.11,0-.2-.09-.2-.21v-3.74h-1.1c-.13,0-.22-.08-.22-.19v-.05c0-.12.09-.2.22-.2h2.65c.12,0,.21.09.21.2v.05c0,.11-.09.19-.21.19h-1.09v3.74c0,.12-.09.21-.2.21M19.36,45.56h1.31v3.95h.03s0-3.95,0-3.95h1.31v-.03h-2.65v.03Z"/>
      <path class="cls-6" d="M24.16,48.17h-1.89v.12c0,.95.45,1.15,1.01,1.15.25,0,.55-.04.83-.1.01,0,.02,0,.03,0,.04,0,.08.02.08.08v.03c0,.07-.03.09-.11.11-.27.05-.59.09-.84.09-.7,0-1.26-.3-1.26-1.37v-.37c0-.78.39-1.35,1.13-1.35s1.12.54,1.12,1.34v.15c0,.06-.05.11-.11.11M24.02,47.91c0-.71-.23-1.12-.87-1.12s-.89.46-.89,1.13v.03h1.75v-.04Z"/>
      <path class="cls-6" d="M23.28,49.76c-.91,0-1.37-.5-1.37-1.48v-.37c0-.88.49-1.45,1.24-1.45s1.22.53,1.22,1.45v.15c0,.12-.1.22-.21.22h-1.79c0,.92.44,1.05.91,1.05.22,0,.52-.03.81-.09.02,0,.04,0,.06,0,.11,0,.19.08.19.19v.03c0,.16-.11.2-.19.22-.3.06-.62.1-.87.1M22.52,46.89c-.25.21-.4.57-.4,1.02v.37c0,.86.37,1.26,1.15,1.26.23,0,.54-.03.82-.09.02,0,.03,0,.03,0h-.02c-.28.06-.59.1-.83.1-.48,0-1.12-.13-1.12-1.26v-.22h2v-.15c0-.56-.18-1.23-1.01-1.23-.16,0-.29.03-.42.08.12-.05.26-.08.42-.08.66,0,.98.4.98,1.23v.14h-1.97v-.14c0-.47.13-.82.36-1.02M22.37,47.84h1.54c-.02-.65-.25-.94-.76-.94-.61,0-.76.5-.78.94"/>
      <path class="cls-6" d="M26.6,49.61c-.24.03-.5.05-.68.05-.8,0-1.11-.63-1.11-1.36v-.38c0-.74.31-1.35,1.11-1.35.18,0,.44.03.68.05.08.01.1.04.1.1v.04c0,.06-.04.08-.1.08h-.02c-.26-.03-.48-.05-.67-.05-.64,0-.86.44-.86,1.13v.38c0,.68.22,1.14.86,1.14.18,0,.4-.02.67-.05h.02c.05,0,.1.02.1.08v.04c0,.06-.02.09-.1.1"/>
      <path class="cls-6" d="M25.92,49.76c-.76,0-1.22-.55-1.22-1.47v-.38c0-.92.45-1.45,1.22-1.45.22,0,.53.03.69.05.17.02.2.12.2.21v.04c0,.11-.08.19-.2.19h-.04c-.27-.03-.48-.05-.65-.05-.52,0-.76.31-.76,1.02v.38c0,.93.43,1.03.76,1.03.18,0,.4-.02.65-.05h.04c.12,0,.2.07.2.19v.04c0,.12-.07.19-.2.21-.26.03-.52.05-.69.05M25.92,46.68c-.87,0-1.01.77-1.01,1.24v.38c0,.47.13,1.25,1.01,1.25.16,0,.41-.02.66-.05,0,0,0,0,.01,0h0s-.01,0-.01,0c-.24.03-.47.05-.66.05-.64,0-.97-.42-.97-1.25v-.38c0-.82.33-1.23.97-1.23.18,0,.4.02.68.05h0s0,0-.01,0c-.27-.03-.51-.05-.66-.05"/>
      <path class="cls-6" d="M29.25,49.66h-.06c-.06,0-.09-.05-.09-.11v-1.9c0-.55-.23-.86-.83-.86-.24,0-.54.04-.76.1v2.66c0,.06-.04.11-.1.11h-.06c-.06,0-.1-.05-.1-.11v-4c0-.06.04-.11.1-.11h.06c.05,0,.1.05.1.11v1.12c.22-.05.51-.1.76-.1.78,0,1.07.45,1.07,1.08v1.9c0,.06-.03.11-.09.11"/>
      <path class="cls-6" d="M29.25,49.76h-.06c-.11,0-.2-.09-.2-.22v-1.9c0-.53-.22-.75-.72-.75-.21,0-.46.03-.65.08v2.57c0,.12-.09.22-.2.22h-.06c-.11,0-.2-.1-.2-.22v-4c0-.12.09-.22.2-.22h.06c.11,0,.2.1.2.22v.99c.22-.05.46-.07.65-.07.77,0,1.18.41,1.18,1.19v1.9c0,.12-.08.22-.2.22M27.37,45.55v4h.06v-2.74s-.01,0-.01,0h0v-1.26h-.04ZM28.27,46.68c.62,0,.94.33.94.97v1.9h.02v-1.9c0-.65-.31-.97-.96-.97-.12,0-.24,0-.36.03.12-.01.24-.02.36-.02"/>
      <path class="cls-6" d="M32.04,49.66h-.06c-.05,0-.1-.05-.1-.11v-1.94c0-.71-.32-.8-.7-.8h-.24c-.37,0-.7.09-.7.8v1.94c0,.06-.04.11-.09.11h-.06c-.06,0-.1-.05-.1-.11v-1.94c0-.94.56-1.04.95-1.04h.24c.39,0,.95.09.95,1.04v1.94c0,.06-.04.11-.1.11"/>
      <path class="cls-6" d="M32.04,49.76h-.06c-.11,0-.2-.09-.2-.22v-1.94c0-.64-.27-.69-.59-.69h-.24c-.32,0-.59.05-.59.69v1.94c0,.12-.09.22-.2.22h-.06c-.11,0-.2-.09-.2-.22v-1.94c0-1.14.79-1.14,1.05-1.14h.24c.26,0,1.06,0,1.06,1.14v1.94c0,.12-.09.22-.2.22M30.94,46.68c-.41,0-.84.11-.84.93v1.94h.04s-.01-1.94-.01-1.94c0-.8.41-.91.81-.91h.24c.4,0,.81.11.81.91v1.94h.03s0-1.94,0-1.94c0-.82-.43-.93-.84-.93h-.24Z"/>
      <path class="cls-6" d="M33.01,46.04h-.03c-.06,0-.11-.04-.11-.1v-.42c0-.06.05-.11.11-.11h.03c.06,0,.11.05.11.11v.42c0,.06-.05.1-.11.1M33.01,49.66h-.03c-.06,0-.11-.05-.11-.11v-2.84c0-.06.05-.1.11-.1h.03c.06,0,.11.05.11.1v2.84c0,.06-.05.11-.11.11"/>
      <path class="cls-6" d="M33.01,49.76h-.03c-.12,0-.21-.1-.21-.22v-2.84c0-.11.1-.21.21-.21h.03c.12,0,.21.1.21.21v2.84c0,.12-.1.22-.21.22M33.01,46.71h-.03s0,2.84,0,2.84h.03v-2.84ZM33.01,46.15h-.03c-.12,0-.21-.09-.21-.21v-.42c0-.11.1-.22.21-.22h.03c.11,0,.21.1.21.22v.42c0,.12-.09.21-.21.21M32.98,45.52v.42s.03,0,.03,0h0v-.42s-.04,0-.04,0Z"/>
      <path class="cls-6" d="M35.59,49.61c-.24.03-.5.05-.68.05-.8,0-1.11-.63-1.11-1.36v-.38c0-.74.31-1.35,1.11-1.35.18,0,.44.03.68.05.08.01.11.04.11.1v.04c0,.06-.04.08-.09.08h-.03c-.26-.03-.48-.05-.67-.05-.64,0-.86.44-.86,1.13v.38c0,.68.22,1.14.86,1.14.18,0,.4-.02.67-.05h.03c.05,0,.09.02.09.08v.04c0,.06-.02.09-.11.1"/>
      <path class="cls-6" d="M34.91,49.76c-.77,0-1.22-.55-1.22-1.47v-.38c0-.92.44-1.45,1.22-1.45.22,0,.52.03.69.05.13.01.2.08.2.21v.04c0,.11-.08.19-.2.19h-.04c-.27-.03-.48-.05-.65-.05-.52,0-.76.31-.76,1.02v.38c0,.93.43,1.03.76,1.03.18,0,.4-.02.65-.05h.04c.12,0,.2.08.2.19v.04c0,.12-.07.19-.2.21-.27.03-.52.05-.69.05M34.91,46.68c-.87,0-1,.77-1,1.24v.38c0,.47.13,1.25,1,1.25.16,0,.41-.02.66-.05,0,0,0,0,.01,0h0s0,0,0,0c-.25.03-.47.05-.67.05-.64,0-.97-.42-.97-1.25v-.38c0-.82.33-1.23.97-1.23.18,0,.4.02.68.05h0s0,0-.01,0c-.28-.03-.51-.05-.66-.05"/>
      <path class="cls-6" d="M38.13,49.54c-.27.08-.57.12-.85.12-.85,0-1.13-.29-1.13-.9v-.07c0-.59.36-.87,1.39-.87h.43v-.21c0-.59-.16-.82-.71-.82-.37,0-.53.03-.8.05-.07,0-.13-.02-.13-.08v-.04c0-.06.04-.09.13-.1.23-.03.43-.05.8-.05.75,0,.95.43.95,1.04v1.81c0,.07-.02.1-.08.12M37.97,48.04h-.43c-.85,0-1.13.16-1.13.64v.07c0,.46.15.69.88.69.28,0,.57-.05.69-.07v-1.33Z"/>
      <path class="cls-6" d="M37.28,49.76c-.87,0-1.24-.3-1.24-1.01v-.07c0-.68.45-.97,1.49-.97h.33v-.1c0-.55-.13-.71-.6-.71-.31,0-.47.02-.67.04h-.14c-.05.01-.1,0-.14-.02-.05-.04-.08-.09-.08-.15v-.03c0-.05.02-.18.22-.21.24-.03.44-.05.81-.05.95,0,1.06.65,1.06,1.14v1.82c0,.12-.05.19-.17.22-.28.08-.58.12-.87.12M37.54,47.92c-1.06,0-1.28.3-1.28.76v.07c0,.49.17.8,1.02.8.13,0,.27,0,.4-.03-.12.02-.26.03-.4.03-.72,0-.99-.22-.99-.79v-.07c0-.63.48-.75,1.24-.75h.54v1.51s.02,0,.03,0v-1.83c0-.66-.24-.93-.84-.93-.36,0-.54.02-.77.05-.04,0-.05,0-.06.01,0,0,0,0,0,0l.02.11v-.11s.12-.01.12-.01c.21-.02.38-.04.7-.04.67,0,.81.37.81.92v.31h-.54ZM37.54,48.14c-.87,0-1.02.17-1.02.54v.07c0,.35.05.58.77.58.23,0,.46-.03.58-.05v-1.13h-.33Z"/>
      <path class="cls-6" d="M39.13,49.66h-.06c-.06,0-.09-.05-.09-.11v-4c0-.06.04-.11.09-.11h.06c.06,0,.1.05.1.11v4c0,.06-.04.11-.1.11"/>
      <path class="cls-6" d="M39.13,49.76h-.06c-.11,0-.2-.1-.2-.22v-4c0-.12.09-.22.2-.22h.06c.11,0,.2.1.2.22v4c0,.12-.09.22-.2.22M39.08,45.55v4h.04v-4s-.04,0-.04,0Z"/>
      <path class="cls-6" d="M43.33,49.54c-.27.08-.56.12-.85.12-.85,0-1.13-.29-1.13-.9v-.07c0-.59.36-.87,1.39-.87h.43v-.21c0-.59-.16-.82-.71-.82-.37,0-.53.03-.8.05-.06,0-.13-.02-.13-.08v-.04c0-.06.05-.09.13-.1.24-.03.43-.05.8-.05.76,0,.95.43.95,1.04v1.81c0,.07-.02.1-.08.12M43.16,48.04h-.43c-.85,0-1.13.16-1.13.64v.07c0,.46.15.69.88.69.28,0,.57-.05.68-.07v-1.33Z"/>
      <path class="cls-6" d="M42.48,49.76c-.87,0-1.24-.3-1.24-1.01v-.07c0-.68.44-.97,1.49-.97h.32v-.1c0-.55-.14-.71-.6-.71-.31,0-.47.02-.67.04h-.14c-.05.01-.1,0-.14-.02-.05-.04-.08-.09-.08-.16v-.03c0-.05.02-.18.22-.21.25-.03.44-.05.81-.05.95,0,1.06.65,1.06,1.14v1.82s0,.18-.17.22c-.28.08-.58.12-.87.12M42.73,47.92c-1.06,0-1.28.3-1.28.76v.07c0,.49.17.8,1.03.8.13,0,.27,0,.4-.03-.12.02-.26.03-.4.03-.72,0-.99-.22-.99-.79v-.07c0-.63.47-.75,1.24-.75h.54v1.51s.02,0,.03,0v-1.83c0-.66-.24-.93-.84-.93-.35,0-.53.02-.77.05-.04,0-.05,0-.06.01,0,0,0,0,0,0l.02.11v-.11s.12-.01.12-.01c.21-.02.37-.04.69-.04.68,0,.81.37.81.92v.31h-.54ZM42.73,48.14c-.87,0-1.02.17-1.02.54v.07c0,.35.05.58.77.58.23,0,.45-.03.57-.05v-1.13h-.32Z"/>
      <path class="cls-6" d="M46.13,49.66h-.06c-.06,0-.09-.05-.09-.11v-1.94c0-.71-.33-.8-.7-.8h-.24c-.38,0-.7.09-.7.8v1.94c0,.06-.04.11-.1.11h-.06c-.06,0-.09-.05-.09-.11v-1.94c0-.94.56-1.04.95-1.04h.24c.39,0,.95.09.95,1.04v1.94c0,.06-.04.11-.09.11"/>
      <path class="cls-6" d="M46.13,49.76h-.06c-.11,0-.2-.09-.2-.22v-1.94c0-.64-.27-.69-.59-.69h-.24c-.33,0-.59.05-.59.69v1.94c0,.12-.09.22-.2.22h-.06c-.11,0-.2-.09-.2-.22v-1.94c0-1.14.8-1.14,1.06-1.14h.24c.26,0,1.06,0,1.06,1.14v1.94c0,.12-.09.22-.2.22M45.04,46.68c-.42,0-.84.11-.84.93v1.94h.04s-.01-1.94-.01-1.94c0-.8.41-.91.81-.91h.24c.4,0,.81.11.81.91v1.94h.03s0-1.94,0-1.94c0-.82-.43-.93-.84-.93h-.24Z"/>
      <path class="cls-6" d="M48.87,49.55c-.25.05-.62.11-.94.11-.77,0-1.1-.56-1.1-1.37v-.37c0-.89.37-1.35,1.1-1.35.22,0,.56.04.78.09v-1.11c0-.06.04-.11.1-.11h.05c.06,0,.1.05.1.11v3.89c0,.07-.02.09-.09.11M48.7,46.86c-.21-.04-.56-.07-.78-.07-.62,0-.85.39-.85,1.13v.37c0,.73.23,1.15.85,1.15.27,0,.58-.04.78-.07v-2.5Z"/>
      <path class="cls-6" d="M47.92,49.76c-.78,0-1.2-.52-1.2-1.47v-.37c0-1.2.65-1.45,1.2-1.45.19,0,.46.03.67.06v-.98c0-.12.09-.22.21-.22h.05c.12,0,.2.09.2.22v3.89c0,.12-.05.18-.17.21-.13.03-.56.11-.97.11M47.92,46.68c-.66,0-.99.4-.99,1.24v.37c0,.57.17,1.26.99,1.26.17,0,.34-.02.5-.04-.15.02-.33.03-.5.03-.64,0-.96-.41-.96-1.26v-.37c0-.53.1-1.23.96-1.23.09,0,.21,0,.33.01-.12-.01-.23-.02-.33-.02M48.81,46.78v2.67s.02,0,.03,0v-3.89s-.04,0-.04,0v1.23ZM47.92,46.9c-.52,0-.74.3-.74,1.02v.37c0,.73.22,1.04.74,1.04.24,0,.5-.03.67-.06v-2.32c-.21-.04-.49-.06-.67-.06"/>
      <path class="cls-6" d="M54.01,45.58l-1.15,3.8c-.06.19-.19.27-.36.27s-.31-.08-.36-.27l-1.15-3.8s0-.03,0-.03c0-.06.03-.11.1-.11h.06s.08.04.09.08l1.14,3.79c.03.09.07.11.13.11.06,0,.1-.02.13-.11l1.15-3.79s.05-.08.09-.08h.06c.06,0,.09.05.09.11,0,0,0,.03,0,.03"/>
      <path class="cls-6" d="M52.5,49.76c-.24,0-.4-.13-.47-.35l-1.15-3.79s-.01-.06-.01-.07c0-.12.09-.21.2-.21h.06c.09,0,.17.07.2.16l1.14,3.78c.02.07.02.04.02.04.02,0,.03-.01.03-.04l1.14-3.79c.02-.09.1-.16.19-.16h.06c.12,0,.2.09.2.21,0,.02,0,.05-.01.08l-1.15,3.79c-.07.23-.23.35-.47.35M51.09,45.55h0l1.15,3.8c.04.14.12.2.26.2s.22-.06.26-.2l1.15-3.8h-.05s-1.13,3.79-1.13,3.79c-.04.13-.12.19-.23.19s-.19-.06-.24-.19l-1.14-3.79h-.03Z"/>
      <path class="cls-6" d="M55.37,49.66c-.77,0-1.15-.49-1.15-1.34v-.4c0-.85.39-1.35,1.15-1.35s1.16.49,1.16,1.35v.4c0,.85-.39,1.34-1.16,1.34M56.28,47.92c0-.69-.25-1.13-.91-1.13s-.91.43-.91,1.13v.4c0,.69.25,1.12.91,1.12s.91-.43.91-1.12v-.4Z"/>
      <path class="cls-6" d="M55.37,49.76c-.81,0-1.26-.52-1.26-1.45v-.4c0-.94.45-1.45,1.26-1.45s1.27.52,1.27,1.45v.4c0,.94-.45,1.45-1.27,1.45M55.37,46.68c-.86,0-1.05.67-1.05,1.24v.4c0,.56.18,1.24,1.05,1.24s1.05-.67,1.05-1.24v-.4c0-.57-.18-1.24-1.05-1.24M55.37,49.54c-.46,0-1.02-.21-1.02-1.23v-.4c0-1.02.55-1.23,1.02-1.23.67,0,1.02.41,1.02,1.23v.4c0,1.02-.55,1.23-1.02,1.23M55.37,46.9c-.54,0-.8.32-.8,1.02v.4c0,.69.25,1.02.8,1.02s.8-.32.8-1.02v-.4c0-.69-.25-1.02-.8-1.02"/>
      <path class="cls-6" d="M58.86,49.61c-.24.03-.5.05-.68.05-.8,0-1.11-.63-1.11-1.36v-.38c0-.74.31-1.35,1.11-1.35.18,0,.44.03.68.05.08.01.11.04.11.1v.04c0,.06-.04.08-.1.08h-.02c-.26-.03-.48-.05-.66-.05-.64,0-.87.44-.87,1.13v.38c0,.68.23,1.14.87,1.14.18,0,.4-.02.66-.05h.02c.06,0,.1.02.1.08v.04c0,.06-.02.09-.11.1"/>
      <path class="cls-6" d="M58.18,49.76c-.76,0-1.22-.55-1.22-1.47v-.38c0-.92.44-1.45,1.22-1.45.22,0,.52.03.69.05.17.02.2.12.2.21v.04c0,.11-.08.19-.2.19h-.04c-.27-.03-.48-.05-.65-.05-.33,0-.76.11-.76,1.02v.38c0,.93.43,1.03.76,1.03.18,0,.39-.02.65-.05h.04c.12,0,.2.07.2.19v.04c0,.08-.03.19-.2.21-.27.03-.52.05-.69.05M58.18,46.68c-.87,0-1,.77-1,1.24v.38c0,.47.13,1.25,1,1.25.16,0,.41-.02.66-.05,0,0,0,0,.01,0h0s0,0,0,0c-.25.03-.47.05-.67.05-.65,0-.97-.42-.97-1.25v-.38c0-.82.33-1.23.97-1.23.18,0,.39.02.68.05h0s0,0-.01,0c-.28-.03-.51-.05-.66-.05"/>
      <path class="cls-6" d="M61.4,49.54c-.27.08-.57.12-.85.12-.85,0-1.14-.29-1.14-.9v-.07c0-.59.36-.87,1.39-.87h.43v-.21c0-.59-.16-.82-.71-.82-.37,0-.53.03-.79.05-.07,0-.13-.02-.13-.08v-.04c0-.06.05-.09.13-.1.23-.03.43-.05.79-.05.76,0,.96.43.96,1.04v1.81c0,.07-.02.1-.08.12M61.23,48.04h-.43c-.84,0-1.13.16-1.13.64v.07c0,.46.15.69.88.69.28,0,.57-.05.68-.07v-1.33Z"/>
      <path class="cls-6" d="M60.55,49.76c-.87,0-1.24-.3-1.24-1.01v-.07c0-.68.44-.97,1.49-.97h.32v-.1c0-.55-.13-.71-.6-.71-.31,0-.47.02-.67.04h-.14c-.05.01-.1,0-.14-.02-.05-.04-.08-.09-.08-.15v-.03c0-.05.02-.18.22-.21.24-.03.44-.05.81-.05.95,0,1.06.65,1.06,1.14v1.82c0,.12-.06.19-.17.22-.28.08-.58.12-.87.12M60.8,47.92c-1.06,0-1.28.3-1.28.76v.07c0,.49.17.8,1.03.8.12,0,.25,0,.38-.03-.12.01-.26.02-.38.02-.72,0-.99-.22-.99-.79v-.07c0-.63.47-.75,1.24-.75h.54v1.51s.02,0,.03,0v-1.83c0-.66-.24-.93-.84-.93-.36,0-.54.02-.77.05-.04,0-.05,0-.05.01,0,0,0,0,0,0l.02.11v-.11s.12-.01.12-.01c.21-.02.37-.04.69-.04.68,0,.81.37.81.92v.31h-.54ZM60.8,48.14c-.87,0-1.02.17-1.02.54v.07c0,.35.05.58.77.58.21,0,.43-.03.57-.05v-1.13h-.32Z"/>
      <path class="cls-6" d="M63.39,49.64c-.07,0-.26.01-.43.01-.49,0-.77-.16-.77-.72v-2.97c0-.05.05-.11.11-.11h.04c.06,0,.1.05.1.11v.63h.94c.06,0,.11.03.11.09v.05c0,.06-.05.09-.11.09h-.94v2.11c0,.43.14.5.52.5h.43c.09,0,.12.02.12.07v.04s-.02.08-.12.1"/>
      <path class="cls-6" d="M62.96,49.76c-.41,0-.88-.1-.88-.83v-2.97c0-.12.1-.22.22-.22h.04c.11,0,.21.1.21.22v.53h.84c.13,0,.22.08.22.19v.05c0,.11-.09.2-.22.2h-.84v2c0,.36.08.39.41.39h.43c.21,0,.23.14.23.18v.04c0,.17-.16.19-.21.2-.09.01-.28.02-.44.02M62.3,45.97v2.97c0,.45.17.61.66.61.09,0,.17,0,.25,0h-.25c-.41,0-.62-.09-.62-.61v-2.21h1.05s-1.05-.01-1.05-.01v-.74h-.04Z"/>
      <path class="cls-6" d="M64.19,46.04h-.03c-.06,0-.11-.04-.11-.1v-.42c0-.06.05-.11.11-.11h.03c.06,0,.11.05.11.11v.42c0,.06-.05.1-.11.1M64.19,49.66h-.03c-.06,0-.11-.05-.11-.11v-2.84c0-.06.05-.1.11-.1h.03c.06,0,.11.05.11.1v2.84c0,.06-.05.11-.11.11"/>
      <path class="cls-6" d="M64.19,49.76h-.03c-.12,0-.22-.1-.22-.22v-2.84c0-.11.1-.21.22-.21h.03c.12,0,.22.1.22.21v2.84c0,.12-.1.22-.22.22M64.19,46.71h-.03s0,2.84,0,2.84h.03v-2.84ZM64.19,46.15h-.03c-.12,0-.22-.09-.22-.21v-.42c0-.11.1-.22.22-.22h.03c.11,0,.22.1.22.22v.42c0,.12-.1.21-.22.21M64.15,45.52v.42s.03,0,.03,0h0v-.42s-.04,0-.04,0Z"/>
      <path class="cls-6" d="M66.13,49.66c-.77,0-1.16-.49-1.16-1.34v-.4c0-.85.39-1.35,1.16-1.35s1.15.49,1.15,1.35v.4c0,.85-.39,1.34-1.15,1.34M67.04,47.92c0-.69-.25-1.13-.91-1.13s-.91.43-.91,1.13v.4c0,.69.25,1.12.91,1.12s.91-.43.91-1.12v-.4Z"/>
      <path class="cls-6" d="M66.13,49.76c-.81,0-1.26-.52-1.26-1.45v-.4c0-.94.45-1.45,1.26-1.45s1.26.52,1.26,1.45v.4c0,.94-.45,1.45-1.26,1.45M66.13,46.68c-.87,0-1.05.67-1.05,1.24v.4c0,.56.18,1.24,1.05,1.24s1.05-.67,1.05-1.24v-.4c0-.57-.18-1.24-1.05-1.24M66.13,49.54c-.47,0-1.02-.21-1.02-1.23v-.4c0-.82.34-1.23,1.02-1.23s1.01.41,1.01,1.23v.4c0,.82-.34,1.23-1.01,1.23M66.13,46.9c-.55,0-.8.32-.8,1.02v.4c0,.69.25,1.02.8,1.02s.8-.32.8-1.02v-.4c0-.69-.25-1.02-.8-1.02"/>
      <path class="cls-6" d="M69.93,49.66h-.06c-.06,0-.1-.05-.1-.11v-1.94c0-.71-.32-.8-.7-.8h-.24c-.38,0-.7.09-.7.8v1.94c0,.06-.04.11-.09.11h-.06c-.05,0-.09-.05-.09-.11v-1.94c0-.94.56-1.04.95-1.04h.24c.38,0,.95.09.95,1.04v1.94c0,.06-.04.11-.1.11"/>
      <path class="cls-6" d="M69.93,49.76h-.06c-.11,0-.2-.09-.2-.22v-1.94c0-.64-.27-.69-.59-.69h-.24c-.33,0-.6.05-.6.69v1.94c0,.12-.09.22-.2.22h-.06c-.11,0-.2-.09-.2-.22v-1.94c0-1.14.79-1.14,1.06-1.14h.24c.26,0,1.05,0,1.05,1.14v1.94c0,.12-.09.22-.21.22M68.84,46.68c-.42,0-.84.11-.84.93v1.94h.04s-.01-1.94-.01-1.94c0-.8.41-.91.81-.91h.24c.4,0,.8.11.8.91v1.94h.03s0-1.94,0-1.94c0-.82-.42-.93-.84-.93h-.24Z"/>
      <path class="cls-6" d="M72.57,49.54c-.27.08-.56.12-.85.12-.85,0-1.13-.29-1.13-.9v-.07c0-.59.37-.87,1.39-.87h.43v-.21c0-.59-.16-.82-.71-.82-.37,0-.53.03-.8.05-.07,0-.13-.02-.13-.08v-.04c0-.06.04-.09.13-.1.23-.03.42-.05.8-.05.75,0,.95.43.95,1.04v1.81c0,.07-.02.1-.09.12M72.41,48.04h-.43c-.85,0-1.13.16-1.13.64v.07c0,.46.15.69.88.69.28,0,.57-.05.69-.07v-1.33Z"/>
      <path class="cls-6" d="M71.73,49.76c-.87,0-1.24-.3-1.24-1.01v-.07c0-.68.45-.97,1.5-.97h.32v-.1c0-.55-.13-.71-.6-.71-.31,0-.47.02-.67.04h-.14c-.05.01-.1,0-.14-.02-.05-.04-.08-.09-.08-.15v-.03c0-.05.02-.18.22-.21.24-.03.44-.05.81-.05.95,0,1.06.65,1.06,1.14v1.82s0,.18-.17.22c-.27.08-.58.12-.87.12M71.98,47.92c-1.06,0-1.28.3-1.28.76v.07c0,.49.17.8,1.03.8.12,0,.26,0,.39-.03-.12.01-.25.02-.39.02-.72,0-.99-.22-.99-.79v-.07c0-.63.48-.75,1.24-.75h.54v1.51s.01,0,.02,0v-1.83c0-.66-.24-.93-.84-.93-.36,0-.54.02-.77.05-.04,0-.06,0-.06.01,0,0,0,0,0,0l.02.11v-.11s.12-.01.12-.01c.21-.02.37-.04.69-.04.68,0,.82.37.82.92v.31h-.54ZM71.98,48.14c-.87,0-1.02.17-1.02.54v.07c0,.35.05.58.77.58.22,0,.45-.03.58-.05v-1.13h-.32Z"/>
      <path class="cls-6" d="M73.57,49.66h-.05c-.06,0-.1-.05-.1-.11v-4c0-.06.04-.11.1-.11h.05c.06,0,.1.05.1.11v4c0,.06-.04.11-.1.11"/>
      <path class="cls-6" d="M73.57,49.76h-.05c-.11,0-.2-.1-.2-.22v-4c0-.12.09-.22.2-.22h.05c.11,0,.2.1.2.22v4c0,.12-.09.22-.2.22M73.52,45.55v4h.04v-4s-.04,0-.04,0Z"/>
      <path class="cls-6" d="M21.4,57.14h-1.45c-.43,0-.68-.16-.68-.63v-2.92c0-.47.25-.63.68-.63h1.45c.06,0,.1.04.1.1v.04c0,.06-.04.09-.1.09h-1.45c-.27,0-.43.05-.43.4v1.24h1.89c.06,0,.1.03.1.09v.06c0,.06-.04.09-.1.09h-1.89v1.44c0,.35.16.4.43.4h1.45c.06,0,.1.03.1.09v.05c0,.05-.04.09-.1.09"/>
      <path class="cls-6" d="M21.4,57.25h-1.45c-.53,0-.79-.24-.79-.74v-2.92c0-.5.26-.74.79-.74h1.45c.12,0,.21.09.21.2v.04c0,.11-.09.2-.21.2h-1.45c-.25,0-.33.04-.33.29v1.13h1.78c.12,0,.21.09.21.2v.06c0,.11-.09.2-.21.2h-1.78v1.33c0,.26.08.3.33.3h1.45c.12,0,.21.08.21.19v.05c0,.11-.09.2-.21.2M21.4,53.05h-1.45c-.41.01-.57.16-.57.53v2.92c0,.38.16.52.57.52h1.46v-.03s-1.46.02-1.46.02c-.28,0-.54-.06-.54-.51v-1.55h1.99v-.04s-1.99.02-1.99.02v-1.35c0-.44.26-.5.54-.5h1.45v-.03Z"/>
      <path class="cls-6" d="M24.31,57.06c-.25.05-.62.11-.94.11-.77,0-1.1-.56-1.1-1.37v-.38c0-.89.37-1.34,1.1-1.34.22,0,.55.03.78.09v-1.11c0-.05.04-.11.09-.11h.06c.05,0,.09.05.09.11v3.9c0,.07-.02.09-.08.11M24.15,54.38c-.22-.04-.56-.07-.78-.07-.62,0-.85.38-.85,1.12v.38c0,.73.23,1.14.85,1.14.27,0,.58-.04.78-.07v-2.5Z"/>
      <path class="cls-6" d="M23.36,57.28c-.78,0-1.21-.52-1.21-1.47v-.38c0-1.2.66-1.45,1.21-1.45.2,0,.46.03.67.06v-.98c0-.12.09-.21.2-.21h.06c.11,0,.2.09.2.21v3.9c0,.12-.05.18-.16.21-.13.03-.57.11-.97.11M23.36,54.2c-.67,0-.99.4-.99,1.23v.38c0,.57.17,1.26.99,1.26.2,0,.41-.02.58-.05-.16.02-.37.04-.58.04-.65,0-.96-.41-.96-1.25v-.38c0-.53.1-1.23.96-1.23.09,0,.22,0,.34.01-.12-.01-.24-.02-.34-.02M24.25,54.29v2.68s.02,0,.03,0v-3.9s-.04,0-.04,0v1.23ZM23.36,54.42c-.53,0-.75.29-.75,1.01v.38c0,.73.22,1.04.75,1.04.23,0,.48-.03.67-.05v-2.32c-.21-.03-.49-.05-.67-.05"/>
      <path class="cls-6" d="M26.41,57.17h-.11c-.38,0-1.02-.21-1.02-1.13v-1.82c0-.06.04-.11.1-.11h.06c.06,0,.09.05.09.11v1.82c0,.72.39.9.77.9h.11c.39,0,.77-.18.77-.9v-1.82c0-.06.04-.11.09-.11h.06c.06,0,.1.05.1.11v1.82c0,.92-.63,1.13-1.02,1.13"/>
      <path class="cls-6" d="M26.41,57.28h-.11c-.52,0-1.13-.32-1.13-1.24v-1.82c0-.12.09-.21.21-.21h.05c.11,0,.2.09.2.21v1.82c0,.53.22.79.66.79h.11c.44,0,.66-.26.66-.79v-1.82c0-.12.09-.21.2-.21h.06c.12,0,.21.09.21.21v1.82c0,.91-.61,1.24-1.13,1.24M25.43,54.22h-.04s.01,1.82.01,1.82c0,.95.7,1.02.91,1.02h.11c.21,0,.91-.07.91-1.02v-1.82h-.05s.01,1.82.01,1.82c0,.88-.55,1.01-.88,1.01h-.11c-.33,0-.88-.13-.88-1.01v-1.82Z"/>
      <path class="cls-6" d="M30.04,57.12c-.24.03-.5.05-.68.05-.8,0-1.11-.63-1.11-1.36v-.38c0-.75.31-1.34,1.11-1.34.18,0,.44.02.68.05.08.01.11.04.11.1v.04c0,.05-.04.08-.09.08h-.02c-.27-.04-.48-.05-.67-.05-.64,0-.87.44-.87,1.12v.38c0,.68.23,1.14.87,1.14.19,0,.4-.02.67-.05h.02c.06,0,.09.03.09.08v.04c0,.06-.02.09-.11.1"/>
      <path class="cls-6" d="M29.36,57.28c-.76,0-1.22-.55-1.22-1.47v-.38c0-.92.45-1.45,1.22-1.45.21,0,.52.03.69.05.14.02.2.09.2.21v.04c0,.11-.08.19-.2.19h-.03c-.25-.03-.46-.05-.66-.05-.52,0-.76.31-.76,1.01v.38c0,.93.43,1.03.76,1.03.19,0,.4-.02.66-.05h.03c.12,0,.2.08.2.19v.04c0,.18-.15.2-.2.21-.27.03-.53.05-.7.05M29.36,54.2c-.83,0-1,.67-1,1.23v.38c0,.47.13,1.26,1,1.26.16,0,.41-.02.67-.05,0,0,0,0,0,0h0s0,0,0,0c-.25.03-.48.05-.67.05-.65,0-.97-.42-.97-1.25v-.38c0-.82.33-1.23.97-1.23.2,0,.42.02.68.05h0s0,0-.01,0c-.28-.03-.52-.05-.66-.05"/>
      <path class="cls-6" d="M32.8,57.05c-.27.07-.57.12-.85.12-.86,0-1.14-.29-1.14-.91v-.07c0-.59.37-.87,1.39-.87h.43v-.2c0-.58-.16-.82-.71-.82-.38,0-.54.02-.8.05-.07,0-.13-.02-.13-.08v-.03c0-.06.04-.09.13-.1.24-.03.42-.05.8-.05.76,0,.96.43.96,1.04v1.81c0,.07-.02.1-.09.12M32.64,55.55h-.43c-.85,0-1.14.17-1.14.64v.07c0,.46.15.69.89.69.28,0,.57-.04.68-.07v-1.34Z"/>
      <path class="cls-6" d="M31.95,57.28c-.87,0-1.25-.3-1.25-1.01v-.07c0-.68.45-.97,1.5-.97h.33v-.09c0-.55-.13-.71-.6-.71-.34,0-.5.02-.72.04h-.1c-.05,0-.1,0-.14-.03-.05-.03-.08-.09-.08-.16v-.03c0-.07.03-.18.22-.21h.04c.22-.03.42-.05.78-.05.95,0,1.06.65,1.06,1.15v1.81c0,.08-.02.19-.17.23-.3.08-.6.12-.87.12M32.2,55.43c-1.06,0-1.28.3-1.28.76v.07c0,.49.17.8,1.03.8.12,0,.25,0,.38-.03-.12.01-.25.02-.38.02-.73,0-.99-.22-.99-.79v-.07c0-.62.48-.75,1.24-.75h.54v1.51s.02,0,.03,0c0,.01,0,0,0-.02v-1.81c0-.66-.24-.93-.85-.93-.35,0-.54.02-.75.05h-.04s-.04.01-.04.01c0,0,0,0,0,0l.02.11v-.11s.07,0,.07,0c.23-.03.4-.05.75-.05.68,0,.82.37.82.93v.31h-.54ZM32.2,55.66c-.87,0-1.03.18-1.03.53v.07c0,.35.05.58.78.58.21,0,.44-.02.58-.05v-1.14h-.33Z"/>
      <path class="cls-6" d="M35,57.15c-.07.01-.26.02-.43.02-.5,0-.77-.17-.77-.72v-2.97c0-.06.05-.11.11-.11h.04c.06,0,.1.05.1.11v.63h.94c.06,0,.11.03.11.09v.05c0,.05-.05.09-.11.09h-.94v2.11c0,.43.14.5.52.5h.43c.08,0,.12.03.12.07v.04s-.02.08-.12.09"/>
      <path class="cls-6" d="M34.58,57.28c-.41,0-.88-.09-.88-.83v-2.97c0-.12.1-.21.21-.21h.04c.12,0,.21.1.21.21v.52h.84c.12,0,.21.08.21.2v.05c0,.11-.09.2-.21.2h-.84v2c0,.36.07.39.41.39h.43c.21,0,.23.15.23.18v.04c0,.12-.07.18-.21.2-.1.02-.36.02-.44.02M33.95,53.48h-.04v2.97c0,.45.17.61.66.61.12,0,.23,0,.31,0h-.31c-.41,0-.62-.09-.62-.61v-2.21h1.05v-.03l-1.05.02v-.74Z"/>
      <path class="cls-6" d="M36.02,53.56h-.03c-.06,0-.11-.05-.11-.11v-.42c0-.05.05-.1.11-.1h.03c.05,0,.11.05.11.1v.42c0,.06-.05.11-.11.11M36.02,57.17h-.03c-.06,0-.11-.05-.11-.11v-2.84c0-.06.05-.11.11-.11h.03c.05,0,.11.05.11.11v2.84c0,.06-.05.11-.11.11"/>
      <path class="cls-6" d="M36.02,57.28h-.03c-.12,0-.22-.1-.22-.22v-2.84c0-.12.1-.21.22-.21h.03c.12,0,.22.1.22.21v2.84c0,.12-.1.22-.22.22M36.02,54.22h-.03v2.84h.03s0-2.84,0-2.84ZM36.02,53.67h-.03c-.12,0-.22-.1-.22-.21v-.42c0-.11.1-.21.22-.21h.03c.11,0,.22.1.22.21v.42c0,.12-.1.21-.22.21M36.02,53.03h-.03v.42h.03v-.42Z"/>
      <path class="cls-6" d="M38.19,57.17c-.77,0-1.16-.5-1.16-1.35v-.4c0-.85.39-1.34,1.16-1.34s1.16.49,1.16,1.34v.4c0,.85-.39,1.35-1.16,1.35M39.1,55.43c0-.69-.25-1.12-.91-1.12s-.91.43-.91,1.12v.4c0,.7.25,1.12.91,1.12s.91-.43.91-1.12v-.4Z"/>
      <path class="cls-6" d="M38.18,57.28c-.82,0-1.27-.51-1.27-1.45v-.4c0-.94.45-1.45,1.27-1.45s1.27.52,1.27,1.45v.4c0,.94-.45,1.45-1.27,1.45M38.18,54.2c-.87,0-1.05.67-1.05,1.23v.4c0,.57.18,1.24,1.05,1.24s1.05-.67,1.05-1.24v-.4c0-.56-.18-1.23-1.05-1.23M38.18,57.06c-.68,0-1.02-.41-1.02-1.23v-.4c0-1.02.55-1.23,1.02-1.23s1.02.21,1.02,1.23v.4c0,.82-.34,1.23-1.02,1.23M38.18,54.42c-.55,0-.8.32-.8,1.01v.4c0,.69.25,1.02.8,1.02s.8-.32.8-1.02v-.4c0-.69-.25-1.01-.8-1.01"/>
      <path class="cls-6" d="M42.2,57.17h-.06c-.05,0-.1-.05-.1-.11v-1.94c0-.71-.33-.8-.7-.8h-.24c-.38,0-.7.09-.7.8v1.94c0,.06-.04.11-.1.11h-.06c-.06,0-.1-.05-.1-.11v-1.94c0-.94.56-1.04.95-1.04h.24c.39,0,.95.09.95,1.04v1.94c0,.06-.04.11-.1.11"/>
      <path class="cls-6" d="M42.2,57.28h-.06c-.11,0-.2-.1-.2-.22v-1.94c0-.64-.27-.7-.59-.7h-.24c-.33,0-.59.05-.59.7v1.94c0,.12-.09.22-.2.22h-.06c-.11,0-.2-.1-.2-.22v-1.94c0-1.15.8-1.15,1.06-1.15h.24c.26,0,1.06,0,1.06,1.15v1.94c0,.12-.09.22-.2.22M41.11,54.2c-.42,0-.84.11-.84.93v1.94h.04s-.01-1.94-.01-1.94c0-.8.41-.91.81-.91h.24c.4,0,.81.11.81.91v1.94h.03v-1.94c0-.82-.43-.93-.84-.93h-.24Z"/>
      <path class="cls-6" d="M46.75,57.05c-.27.07-.57.12-.85.12-.86,0-1.14-.29-1.14-.91v-.07c0-.59.37-.87,1.39-.87h.43v-.2c0-.58-.17-.82-.71-.82-.37,0-.53.02-.8.05-.07,0-.13-.02-.13-.08v-.03c0-.06.05-.09.13-.1.23-.03.43-.05.8-.05.76,0,.95.43.95,1.04v1.81c0,.07-.02.1-.08.12M46.59,55.55h-.43c-.85,0-1.13.17-1.13.64v.07c0,.46.15.69.88.69.28,0,.57-.04.69-.07v-1.34Z"/>
      <path class="cls-6" d="M45.9,57.28c-.87,0-1.25-.3-1.25-1.01v-.07c0-.68.45-.97,1.5-.97h.33v-.09c0-.55-.13-.71-.6-.71-.33,0-.5.02-.72.04h-.1c-.05,0-.1,0-.14-.03-.05-.03-.08-.09-.08-.16v-.03c0-.07.03-.18.22-.21h.03c.23-.03.42-.05.79-.05.95,0,1.06.65,1.06,1.15v1.81c0,.08-.02.19-.17.23-.29.08-.6.12-.87.12M46.15,55.43c-1.06,0-1.28.3-1.28.76v.07c0,.49.17.8,1.03.8.12,0,.25,0,.38-.03-.12.01-.25.02-.38.02-.72,0-.99-.22-.99-.79v-.07c0-.62.47-.75,1.24-.75h.54v1.51s.02,0,.03,0c0,.01,0,0,0-.02v-1.81c0-.66-.25-.93-.85-.93-.35,0-.54.02-.76.05-.05,0-.06.01-.07.01,0,0,0,0-.01,0l.02.11v-.11s.07,0,.07,0c.23-.03.4-.05.75-.05.68,0,.82.37.82.93v.31h-.54ZM46.15,55.66c-.87,0-1.03.18-1.03.53v.07c0,.36.05.58.78.58.21,0,.44-.02.58-.05v-1.14h-.33Z"/>
      <path class="cls-6" d="M49.78,57.17h-.06c-.06,0-.1-.05-.1-.11v-1.94c0-.71-.32-.8-.7-.8h-.24c-.38,0-.7.09-.7.8v1.94c0,.06-.04.11-.09.11h-.06c-.06,0-.1-.05-.1-.11v-1.94c0-.94.57-1.04.95-1.04h.24c.39,0,.95.09.95,1.04v1.94c0,.06-.04.11-.09.11"/>
      <path class="cls-6" d="M49.78,57.28h-.06c-.12,0-.2-.1-.2-.22v-1.94c0-.64-.27-.7-.6-.7h-.24c-.33,0-.59.05-.59.7v1.94c0,.12-.09.22-.2.22h-.06c-.12,0-.21-.1-.21-.22v-1.94c0-.76.36-1.15,1.06-1.15h.24c.26,0,1.06,0,1.06,1.15v1.94c0,.12-.09.22-.2.22M48.68,54.2c-.39,0-.84.11-.84.93v1.94h.05s-.01-1.94-.01-1.94c0-.8.41-.91.81-.91h.24c.4,0,.81.11.81.91v1.94h.03v-1.94c0-.82-.42-.93-.84-.93h-.24Z"/>
      <path class="cls-6" d="M52.73,57.06c-.25.05-.63.11-.94.11-.78,0-1.1-.56-1.1-1.37v-.38c0-.89.37-1.34,1.1-1.34.22,0,.55.03.78.09v-1.11c0-.05.04-.11.1-.11h.05c.06,0,.09.05.09.11v3.9c0,.07-.02.09-.08.11M52.57,54.38c-.21-.04-.56-.07-.78-.07-.62,0-.86.38-.86,1.12v.38c0,.73.23,1.14.86,1.14.27,0,.58-.04.78-.07v-2.5Z"/>
      <path class="cls-6" d="M51.79,57.28c-.78,0-1.21-.52-1.21-1.47v-.38c0-1.2.66-1.45,1.21-1.45.2,0,.46.03.67.06v-.98c0-.12.09-.21.2-.21h.05c.11,0,.2.09.2.21v3.9c0,.11-.05.18-.17.21-.13.03-.57.11-.97.11M51.79,54.2c-.67,0-1,.4-1,1.23v.38c0,.57.17,1.26,1,1.26.2,0,.41-.02.58-.05-.18.02-.39.04-.58.04-.65,0-.97-.41-.97-1.25v-.38c0-.53.1-1.23.97-1.23.09,0,.22,0,.34.01-.12-.01-.24-.02-.34-.02M52.68,54.29v2.67s.02,0,.03,0v-3.9s-.04,0-.04,0v1.23ZM51.79,54.42c-.53,0-.75.29-.75,1.01v.38c0,.73.22,1.04.75,1.04.22,0,.48-.03.67-.05v-2.32c-.21-.03-.49-.05-.67-.05"/>
      <path class="cls-6" d="M57.96,53.19h-1.2v3.84c0,.06-.04.11-.1.11h-.05c-.06,0-.1-.05-.1-.11v-3.84h-1.21c-.06,0-.11-.03-.11-.08v-.05c0-.06.05-.1.11-.1h2.66c.06,0,.11.04.11.1v.05c0,.05-.05.08-.11.08"/>
      <path class="cls-6" d="M56.66,57.25h-.05c-.12,0-.21-.1-.21-.22v-3.73h-1.1c-.12,0-.21-.08-.21-.19v-.05c0-.12.09-.2.21-.2h2.66c.12,0,.22.09.22.2v.05c0,.11-.09.19-.22.19h-1.1v3.73c0,.12-.09.22-.2.22M55.31,53.08h1.31v3.95h.03v-3.95h1.31v-.03h-2.66s0,.03,0,.03Z"/>
      <path class="cls-6" d="M59.49,54.31h-.18c-.29,0-.44.03-.61.13v2.62c0,.06-.04.11-.09.11h-.06c-.06,0-.09-.05-.09-.11v-2.67s.03-.08.05-.09c.27-.17.51-.22.81-.22.25,0,.28.03.28.1v.03c0,.07-.04.09-.11.09"/>
      <path class="cls-6" d="M58.61,57.28h-.06c-.11,0-.2-.09-.2-.22v-2.67c0-.09.06-.15.11-.18.27-.16.52-.23.86-.23.17,0,.39,0,.39.21v.03s-.02.2-.22.2h-.18c-.24,0-.37.02-.5.09v2.56c0,.12-.09.22-.2.22M58.59,54.38s-.02.01-.02.02v2.66s.02,0,.02,0v-2.68ZM59.32,54.2c-.09,0-.18,0-.25.02.07,0,.15-.01.25-.01h.15s-.07,0-.14,0"/>
      <path class="cls-6" d="M62.04,57.05c-.27.07-.57.12-.85.12-.86,0-1.14-.29-1.14-.91v-.07c0-.59.37-.87,1.39-.87h.43v-.2c0-.58-.16-.82-.71-.82-.37,0-.53.02-.8.05-.07,0-.13-.02-.13-.08v-.03c0-.06.04-.09.13-.1.24-.03.43-.05.8-.05.76,0,.95.43.95,1.04v1.81c0,.07-.02.1-.08.12M61.88,55.55h-.43c-.85,0-1.13.17-1.13.64v.07c0,.46.15.69.88.69.28,0,.58-.04.68-.07v-1.34Z"/>
      <path class="cls-6" d="M61.19,57.28c-.87,0-1.24-.3-1.24-1.01v-.07c0-.68.45-.97,1.5-.97h.33v-.09c0-.55-.13-.71-.6-.71-.33,0-.5.02-.72.04h-.09c-.05,0-.1,0-.14-.03-.05-.04-.08-.09-.08-.16v-.03c0-.05.02-.18.22-.21h.04c.22-.03.42-.05.78-.05.95,0,1.06.65,1.06,1.15v1.81c0,.08-.02.19-.17.23-.3.08-.6.12-.87.12M61.45,55.43c-1.06,0-1.28.3-1.28.76v.07c0,.49.17.8,1.03.8.12,0,.25,0,.38-.03-.12.01-.25.02-.38.02-.72,0-.99-.22-.99-.79v-.07c0-.62.47-.75,1.24-.75h.54v1.51s.02,0,.03,0c0,.01,0,0,0-.02v-1.81c0-.66-.24-.93-.85-.93-.35,0-.54.02-.75.05h-.04s-.04.01-.04.01c0,0,0,0,0,0l.02.11v-.11s.07,0,.07,0c.23-.03.4-.05.75-.05.68,0,.82.37.82.93v.31h-.54ZM61.45,55.66c-.87,0-1.03.18-1.03.53v.07c0,.35.05.58.77.58.21,0,.44-.02.58-.05v-1.14h-.33Z"/>
      <path class="cls-6" d="M63.25,53.56h-.04c-.05,0-.11-.05-.11-.11v-.42c0-.05.05-.1.11-.1h.04c.05,0,.11.05.11.1v.42c0,.06-.05.11-.11.11M63.25,57.17h-.04c-.05,0-.11-.05-.11-.11v-2.84c0-.06.05-.11.11-.11h.04c.05,0,.11.05.11.11v2.84c0,.06-.05.11-.11.11"/>
      <path class="cls-6" d="M63.25,57.28h-.04c-.12,0-.22-.1-.22-.22v-2.84c0-.12.1-.21.22-.21h.04c.11,0,.21.1.21.21v2.84c0,.12-.1.22-.21.22M63.25,54.22h-.03v2.84h.03s0-2.84,0-2.84ZM63.25,53.67h-.04c-.12,0-.22-.1-.22-.21v-.42c0-.11.1-.21.22-.21h.04c.11,0,.21.1.21.21v.42c0,.12-.1.21-.21.21M63.25,53.03h-.03v.42h.03v-.42Z"/>
      <path class="cls-6" d="M66.36,57.17h-.06c-.05,0-.1-.05-.1-.11v-1.94c0-.71-.33-.8-.7-.8h-.24c-.38,0-.7.09-.7.8v1.94c0,.06-.04.11-.1.11h-.06c-.05,0-.1-.05-.1-.11v-1.94c0-.94.56-1.04.95-1.04h.24c.39,0,.95.09.95,1.04v1.94c0,.06-.04.11-.09.11"/>
      <path class="cls-6" d="M66.36,57.28h-.06c-.11,0-.21-.1-.21-.22v-1.94c0-.64-.27-.7-.59-.7h-.24c-.33,0-.59.05-.59.7v1.94c0,.12-.09.22-.2.22h-.06c-.11,0-.2-.1-.2-.22v-1.94c0-1.15.8-1.15,1.06-1.15h.24c.26,0,1.06,0,1.06,1.15v1.94c0,.12-.09.22-.2.22M65.26,54.2c-.42,0-.84.11-.84.93v1.94h.04s-.01-1.94-.01-1.94c0-.8.41-.91.81-.91h.24c.4,0,.81.11.81.91v1.94h.03v-1.94c0-.82-.42-.93-.84-.93h-.24Z"/>
      <path class="cls-6" d="M67.55,53.56h-.04c-.06,0-.11-.05-.11-.11v-.42c0-.05.05-.1.11-.1h.04c.06,0,.11.05.11.1v.42c0,.06-.05.11-.11.11M67.55,57.17h-.04c-.06,0-.11-.05-.11-.11v-2.84c0-.06.05-.11.11-.11h.04c.06,0,.11.05.11.11v2.84c0,.06-.05.11-.11.11"/>
      <path class="cls-6" d="M67.55,57.28h-.04c-.12,0-.21-.1-.21-.22v-2.84c0-.12.1-.21.21-.21h.04c.12,0,.21.1.21.21v2.84c0,.12-.1.22-.21.22M67.54,54.22h-.03s0,2.84,0,2.84h.03s0-2.84,0-2.84ZM67.55,53.67h-.04c-.12,0-.21-.1-.21-.21v-.42c0-.11.1-.21.21-.21h.04c.12,0,.21.1.21.21v.42c0,.12-.1.21-.21.21M67.54,53.03h-.03s0,.42,0,.42h.03v-.42Z"/>
      <path class="cls-6" d="M70.65,57.17h-.06c-.06,0-.1-.05-.1-.11v-1.94c0-.71-.32-.8-.7-.8h-.24c-.37,0-.7.09-.7.8v1.94c0,.06-.04.11-.1.11h-.05c-.06,0-.1-.05-.1-.11v-1.94c0-.94.56-1.04.95-1.04h.24c.39,0,.95.09.95,1.04v1.94c0,.06-.04.11-.1.11"/>
      <path class="cls-6" d="M70.65,57.28h-.06c-.12,0-.2-.09-.2-.22v-1.94c0-.64-.27-.7-.6-.7h-.24c-.33,0-.59.05-.59.7v1.94c0,.12-.09.22-.21.22h-.05c-.12,0-.2-.1-.2-.22v-1.94c0-1.15.8-1.15,1.06-1.15h.24c.26,0,1.06,0,1.06,1.15v1.94c0,.12-.09.22-.21.22M69.56,54.2c-.42,0-.84.11-.84.93v1.94h.04s0-1.94,0-1.94c0-.8.41-.91.81-.91h.24c.4,0,.81.11.81.91v1.94h.03v-1.94c0-.82-.43-.93-.84-.93h-.24Z"/>
      <path class="cls-6" d="M72.68,58.24c-.38,0-.75-.04-.86-.07-.09-.02-.11-.04-.11-.1v-.03c0-.06.04-.09.1-.09h.02c.14.03.51.07.85.07.59,0,.78-.15.78-.87v-.06c-.16.05-.53.09-.73.09-.51,0-1.16-.14-1.16-1.36v-.39c0-.99.39-1.34,1.16-1.34.31,0,.7.07.88.11.07.02.08.04.08.11v2.84c0,.89-.36,1.09-1.02,1.09M73.45,54.38c-.2-.03-.45-.07-.72-.07-.63,0-.92.21-.92,1.12v.39c0,.98.39,1.14.92,1.14.18,0,.53-.03.72-.08v-2.49Z"/>
      <path class="cls-6" d="M72.68,58.35c-.4,0-.78-.05-.88-.07-.08-.02-.19-.06-.19-.21v-.03c0-.11.08-.19.2-.19h.04c.14.03.51.07.83.07.51,0,.66-.09.67-.69-.19.04-.46.06-.62.06-.31,0-1.27,0-1.27-1.46v-.39c0-1,.39-1.45,1.27-1.45.32,0,.72.07.91.11.12.03.17.09.17.21v2.84c0,1-.45,1.2-1.13,1.2M71.82,58.06s.01,0,.02,0c.11.02.47.07.84.07.6,0,.91-.15.91-.99v-2.84s-.02,0-.03,0v2.65h0s0,.2,0,.2c0,.75-.21.98-.88.98-.33,0-.7-.05-.86-.07h0ZM72.73,54.2c-.64,0-1.05.21-1.05,1.23v.39c0,1.1.53,1.25,1.05,1.25.14,0,.36-.02.52-.05-.19.03-.4.04-.52.04-.53,0-1.03-.15-1.03-1.24v-.39c0-.91.27-1.23,1.03-1.23.17,0,.33.02.48.03-.16-.02-.33-.04-.48-.04M72.73,54.42c-.56,0-.81.15-.81,1.01v.39c0,.95.37,1.03.81,1.03.15,0,.42-.02.61-.06v-2.31c-.18-.03-.39-.05-.61-.05"/>
    </g>
  </g>
  <line class="cls-4" x1="158.04" y1="10.99" x2="158.04" y2="60.47"/>
  <g>
    <path class="cls-8" d="M179.02,57.14h-1.15l-.23-1.47h-1.45l-.24,1.47h-1.15v-.02l1.5-7.71h1.23l1.49,7.73ZM177.48,54.68l-.57-3.48-.57,3.48h1.14Z"/>
    <path class="cls-8" d="M182.96,56.14c0,.41-.15.69-.44.85-.21.12-.53.16-.96.16-.1,0-.23,0-.42,0-.18,0-.31,0-.39,0v1.81h-1.14v-6.8h1.14v.19c.27-.04.53-.08.8-.12.33-.05.6-.08.79-.08.42,0,.62.2.62.61v3.39ZM181.82,55.83v-2.73l-1.07.02v3.08h.71c.25,0,.36-.12.36-.37Z"/>
    <path class="cls-8" d="M187.11,56.14c0,.41-.14.69-.43.85-.21.12-.54.16-.96.16-.1,0-.23,0-.42,0-.18,0-.31,0-.39,0v1.81h-1.13v-6.8h1.13v.19c.27-.04.53-.08.8-.12.33-.05.6-.08.79-.08.42,0,.62.2.62.61v3.39ZM185.97,55.83v-2.73l-1.07.02v3.08h.7c.25,0,.37-.12.37-.37Z"/>
    <path class="cls-8" d="M189.06,57.14h-1.11v-7.73h1.11v7.73Z"/>
    <path class="cls-8" d="M191.06,51.44h-1.13v-1.16h1.13v1.16ZM191.05,57.14h-1.11v-4.99h1.11v4.99Z"/>
    <path class="cls-8" d="M195.15,56.52c0,.42-.21.62-.64.62h-1.96c-.43,0-.64-.21-.64-.62v-3.74c0-.41.21-.62.64-.62h1.96c.43,0,.64.21.64.62v1.83l-.32.31h-1.84v1.4h1.07v-.83h1.09v1.04ZM194.06,54.18v-1.19h-1.07v1.19h1.07Z"/>
    <path class="cls-8" d="M199.3,57.14h-1.13v-.18c-.77.14-1.21.2-1.29.2-.29,0-.51-.08-.67-.25-.16-.16-.25-.39-.25-.67v-3.08c0-.41.15-.69.44-.84.21-.12.53-.19.96-.19.09,0,.23,0,.41.01.18,0,.31,0,.39,0v-2.74h1.13v7.73ZM198.16,56.17v-3.07h-.7c-.25,0-.38.13-.38.38v2.38c0,.25.12.36.37.36.05,0,.29-.02.72-.05Z"/>
    <path class="cls-8" d="M205.65,50.44h-1.28v6.7h-1.16v-6.7h-1.28v-1.02h3.72v1.02Z"/>
    <path class="cls-8" d="M209.42,56.52c0,.42-.22.62-.65.62h-1.96c-.43,0-.64-.21-.64-.62v-3.74c0-.41.22-.62.64-.62h1.96c.43,0,.65.21.65.62v1.83l-.31.31h-1.84v1.4h1.07v-.83h1.09v1.04ZM208.34,54.18v-1.19h-1.07v1.19h1.07Z"/>
    <path class="cls-8" d="M213.48,56.52c0,.42-.21.62-.63.62h-1.97c-.42,0-.64-.21-.64-.62v-3.74c0-.41.21-.62.64-.62h1.97c.42,0,.63.21.63.62v1.19h-1.1v-.86h-1.02v3.1h1.02v-.95h1.1v1.27Z"/>
    <path class="cls-8" d="M217.65,57.14h-1.14v-4.05l-1.07.02v4.02h-1.14v-7.73h1.14v2.92c.26-.04.52-.08.79-.12.34-.05.6-.08.79-.08.42,0,.62.2.62.61v4.4Z"/>
    <path class="cls-8" d="M221.81,57.14h-1.14v-4.05l-1.07.02v4.02h-1.13v-4.99h1.13v.19c.27-.04.53-.08.8-.12.33-.05.59-.08.8-.08.42,0,.62.2.62.61v4.4Z"/>
    <path class="cls-8" d="M225.93,56.52c0,.42-.21.62-.63.62h-2.03c-.43,0-.65-.21-.65-.62v-3.74c0-.41.22-.62.65-.62h2.03c.42,0,.63.21.63.62v3.74ZM224.82,56.2v-3.1h-1.08v3.1h1.08Z"/>
    <path class="cls-8" d="M227.9,57.14h-1.12v-7.73h1.12v7.73Z"/>
    <path class="cls-8" d="M232.05,56.52c0,.42-.22.62-.64.62h-2.04c-.43,0-.65-.21-.65-.62v-3.74c0-.41.21-.62.65-.62h2.04c.42,0,.64.21.64.62v3.74ZM230.93,56.2v-3.1h-1.08v3.1h1.08Z"/>
    <path class="cls-8" d="M236.2,58.34c0,.41-.21.61-.64.61h-1.98c-.43,0-.64-.2-.64-.61v-.8h1.1v.6h1.02v-1.03h-1.17c-.32,0-.57-.09-.76-.26-.19-.18-.28-.42-.28-.74v-3.05c0-.28.08-.51.24-.67.16-.17.39-.25.67-.25.15,0,.58.07,1.29.2v-.19h1.14v6.19ZM235.06,56.2v-3.06c-.38-.04-.62-.06-.71-.06-.24,0-.36.11-.36.36v2.39c0,.25.13.37.38.37h.7Z"/>
    <path class="cls-8" d="M240.42,52.16l-1.26,4.93-.48,1.87h-1.16l.52-1.86-1.27-4.95h1.17l.66,3.28.65-3.28h1.17Z"/>
    <path class="cls-8" d="M246.88,56.43c0,.47-.23.71-.72.71h-2.38c-.48,0-.71-.24-.71-.71v-1.83h1.18v1.57h1.45v-1.51l-2.36-2.2c-.18-.16-.26-.36-.26-.61v-1.72c0-.47.23-.71.71-.71h2.38c.48,0,.72.24.72.7v1.73h-1.18v-1.46h-1.45v1.4l2.36,2.18c.17.16.26.37.26.64v1.83Z"/>
    <path class="cls-8" d="M269.49,56.69c0,.31-.2.46-.61.46h-2c-.41,0-.6-.15-.6-.46v-1.18h1v1.01h1.22v-.97l-1.99-1.41c-.15-.1-.22-.23-.22-.39v-1.11c0-.3.19-.46.6-.46h2c.41,0,.61.15.61.45v1.12h-.99v-.94h-1.22v.9l1.99,1.4c.15.1.22.24.22.41v1.18Z"/>
    <path class="cls-8" d="M251.06,56.52c0,.42-.22.62-.65.62h-2c-.44,0-.65-.21-.65-.62v-3.74c0-.41.21-.62.65-.62h2c.43,0,.65.21.65.62v1.19h-1.13v-.86h-1.04v3.1h1.04v-.95h1.13v1.27Z"/>
    <path class="cls-8" d="M255.29,57.14h-1.16v-4.05l-1.09.02v4.02h-1.15v-7.73h1.15v2.92c.27-.04.54-.08.81-.12.34-.05.61-.08.8-.08.42,0,.64.2.64.61v4.4Z"/>
    <path class="cls-8" d="M259.48,56.52c0,.42-.21.62-.64.62h-2.07c-.43,0-.65-.21-.65-.62v-3.74c0-.41.22-.62.65-.62h2.07c.43,0,.64.21.64.62v3.74ZM258.36,56.2v-3.1h-1.1v3.1h1.1Z"/>
    <path class="cls-8" d="M263.5,56.52c0,.42-.22.62-.64.62h-2.07c-.43,0-.66-.21-.66-.62v-3.74c0-.41.22-.62.66-.62h2.07c.43,0,.64.21.64.62v3.74ZM262.36,56.2v-3.1h-1.1v3.1h1.1Z"/>
    <path class="cls-8" d="M265.49,57.14h-1.13v-7.73h1.13v7.73Z"/>
    <g>
      <rect class="cls-9" x="259.42" y="37.16" width="1.14" height="5.89"/>
      <path class="cls-9" d="M254.76,41.96h-1.17v-2.24h-1.11v2.24h-1.09v-1.67h-1.19v2.85c0,.38-.19.57-.57.57h-1.43c-.49,0-.47-.57-.47-.57v-2.85h-.95v3.04c0,1.71,1.27,1.52,1.27,1.52-.03,0,.76,0,1.58,0,2,0,1.64-1.81,1.64-1.81h4.73v-3.99h-1.24v2.9Z"/>
      <path class="cls-9" d="M257.61,43.14c0,.57-.57.57-.57.57h-.38v1.15h.89c1.11,0,1.11-1.34,1.11-1.34v-4.56h-1.05v4.18Z"/>
      <path class="cls-9" d="M267.7,39.06s-1.42-.1-1.42,1.33v1.57h-1.36v-1.1s-.09-1.78-1.78-1.78h-.97v1.02s.75,0,.75,0c0,0,.87-.1.96.95.05.58,0,.91,0,.91h-2.43v1.09h4.83v.93h1.78s1.14-.27,1.14-1.6v-3.33h-1.5ZM268.25,42.38c0,.38-.26.5-.44.5h-.51v-2.4c0-.38.38-.38.38-.38h.57v2.28Z"/>
      <rect class="cls-9" x="177.48" y="37.66" width="1.02" height=".98"/>
      <rect class="cls-9" x="176.01" y="37.66" width="1.05" height=".98"/>
      <rect class="cls-9" x="181.12" y="43.59" width="1.03" height=".99"/>
      <rect class="cls-9" x="179.66" y="43.59" width="1.03" height=".99"/>
      <rect class="cls-9" x="185.17" y="37.66" width="1.03" height=".98"/>
      <rect class="cls-9" x="183.71" y="37.66" width="1.03" height=".98"/>
      <rect class="cls-9" x="189.03" y="43.59" width="1.02" height=".99"/>
      <rect class="cls-9" x="187.57" y="43.59" width="1.03" height=".99"/>
      <rect class="cls-9" x="191.32" y="43.59" width="1.03" height=".99"/>
      <rect class="cls-9" x="199.44" y="37.66" width="1.03" height=".98"/>
      <rect class="cls-9" x="200.9" y="37.66" width="1.03" height=".98"/>
      <path class="cls-9" d="M203.19,41.99h-1.26v-2.74h-1.03v2.74h-2.93v-1.25c0-.88-.65-1.49-1.62-1.49h-1.73v-1.58h-1.03v4.32h-1.24v-2.74h-1.03v2.74h-1.27v-2.74h-1.02v2.74h-2.55v-2.74h-1.22c-.44,0-.78.07-1,.17-.55.3-.84.78-.84,1.41,0,.38.13.71.35,1,.07.06.13.12.16.16h-1.78v-2.74h-1.03v2.74h-2.61v-2.74c-2.02.12-3.43,1.44-3.65,3.72h1.06c.27-1.35.83-2.28,1.57-2.52v2.52h26.74v-5.3h-1.03v4.32ZM185.46,41.86c-.67-.22-1-.57-1-1.05,0-.39.25-.59.74-.59h.26v1.64ZM196.94,41.99h-2.31v-1.76h1.77c.36,0,.55.2.55.59v1.17Z"/>
      <rect class="cls-9" x="204.99" y="37.66" width="1.03" height="5.3"/>
      <rect class="cls-9" x="211.37" y="43.59" width="1.02" height=".99"/>
      <rect class="cls-9" x="209.91" y="43.59" width="1.03" height=".99"/>
      <rect class="cls-9" x="215.73" y="43.59" width="1.03" height=".99"/>
      <path class="cls-9" d="M216.52,39.25h-1.5v.98h1.53c.37,0,.55.2.55.59v1.17h-3.53v-2.74h-1.02v2.74h-2.82v-4.32h-1.03v5.3h9.44v-2.23c0-.88-.66-1.49-1.61-1.49Z"/>
      <path class="cls-9" d="M223.26,41.99h-1.27v-2.74h-1.27c-.96,0-1.63.61-1.63,1.49v.74c0,.9.67,1.49,1.63,1.49h.23v.28c0,.08-.03.16-.06.21-.05.09-.18.13-.38.13h-1.42v.99h1.33c1.01,0,1.57-.52,1.57-1.45v-.16h2.29v-5.3h-1.03v4.32ZM220.96,41.99h-.26c-.38,0-.57-.2-.57-.6v-.57c0-.39.19-.59.57-.59h.26v1.76Z"/>
      <rect class="cls-9" x="229.22" y="37.66" width="1.02" height=".98"/>
      <rect class="cls-9" x="237.44" y="37.66" width="1.02" height=".98"/>
      <rect class="cls-9" x="238.9" y="37.66" width="1.02" height=".98"/>
      <path class="cls-9" d="M241.19,41.99h-1.27v-2.74h-1.02v2.74h-2.17v-.5c0-.87-.67-1.49-1.62-1.49h-1.63v-.23l2.89-2.08h-1.7l-2.24,1.61v1.69h2.69c.38,0,.56.2.56.6v.4h-5.45v-2.74h-1.02v2.74h-1.27v-2.74h-1.27c-.96,0-1.62.61-1.62,1.49v.74c0,.9.66,1.49,1.62,1.49h.23v.28c0,.08-.02.16-.05.21-.06.09-.19.13-.38.13h-1.42v.99h1.32c1.01,0,1.57-.52,1.57-1.45v-.16h14.26v-5.3h-1.03v4.32ZM226.91,41.99h-.26c-.37,0-.56-.2-.56-.6v-.57c0-.39.19-.59.56-.59h.26v1.76Z"/>
      <rect class="cls-9" x="242.99" y="37.66" width="1.03" height="5.3"/>
    </g>
    <g class="cls-1">
      <path class="cls-5" d="M213.87,18.68c0-3.53,2.89-6.41,6.41-6.41h10.53v10.57c0,3.52-2.88,6.41-6.4,6.41h-10.53v-10.58Z"/>
      <polygon class="cls-7" points="221.58 24.67 223.09 24.67 223.09 18.24 224.49 18.24 224.49 16.84 220.18 16.84 220.18 18.24 221.58 18.24 221.58 24.67"/>
      <path class="cls-3" d="M210.8,29.25h-10.52c-3.53,0-6.42-2.89-6.42-6.42v-10.57h10.53c3.52,0,6.4,2.89,6.4,6.41v10.58Z"/>
      <path class="cls-7" d="M203.85,16.83h-1.82l-1.7,7.84h1.48l.34-1.79h1.41l.34,1.79h1.48l-1.53-7.84ZM202.31,21.7l.29-1.64c.08-.46.2-1.26.28-1.78h.04c.07.52.17,1.31.25,1.78l.26,1.64h-1.11Z"/>
      <path class="cls-2" d="M250.19,12.37v10.61c0,3.45-2.82,6.27-6.27,6.27h-10.55v-10.61c0-3.45,2.81-6.27,6.27-6.27h10.56Z"/>
      <path class="cls-7" d="M239.74,24.48c.27.15.87.31,1.5.31,1.52,0,2.58-.94,2.58-2.37,0-.83-.37-1.62-1.42-2.24-.83-.51-1.07-.75-1.07-1.22,0-.42.32-.81.96-.81.43,0,.77.13.99.27l.24-1.31c-.22-.14-.71-.28-1.23-.28-1.63,0-2.46,1.04-2.46,2.3,0,.71.41,1.54,1.48,2.18.67.43,1.01.71,1.01,1.28,0,.52-.36.88-1.07.88-.43,0-.98-.12-1.29-.3l-.22,1.32Z"/>
    </g>
  </g>
</svg>